<svg width="80" height="81" viewBox="0 0 80 81" fill="none" xmlns="http://www.w3.org/2000/svg">
<path d="M-0.000366211 0.133301V80.1333H79.9996V0.133301H-0.000366211ZM38.983 40.95C36.488 43.4466 32.5663 44.6166 28.1363 44.6166C26.9663 44.6166 25.8963 44.5646 25.0813 44.4133V57.3466H18.8696V23.4866C21.1096 23.0783 24.2163 22.7733 28.443 22.7733C33.0263 22.7733 36.3863 23.7416 38.5763 25.5733C40.613 27.2533 41.9363 29.9516 41.9363 33.16C41.9346 36.4183 40.918 39.1166 38.983 40.95ZM51.048 57.855C48.0463 57.855 45.348 57.1433 43.513 56.125L44.733 51.5916C46.158 52.46 48.858 53.3733 51.098 53.3733C53.848 53.3733 55.068 52.2516 55.068 50.625C55.068 48.945 54.0513 48.08 50.998 47.01C46.1596 45.3283 44.1213 42.68 44.173 39.78C44.173 35.4016 47.7896 31.9883 53.5413 31.9883C56.293 31.9883 58.6846 32.7016 60.1096 33.465L58.888 37.895C57.8196 37.285 55.833 36.47 53.6446 36.47C51.403 36.47 50.183 37.54 50.183 39.0683C50.183 40.6466 51.3546 41.41 54.513 42.53C58.993 44.16 61.0796 46.45 61.1313 50.1183C61.1313 54.5966 57.618 57.855 51.048 57.855ZM28.6963 27.56C26.9646 27.56 25.743 27.7133 25.0813 27.865V39.475C25.8446 39.6783 26.863 39.73 28.1363 39.73C32.8213 39.73 35.6713 37.4383 35.6713 33.415C35.6713 29.5966 33.0246 27.56 28.6963 27.56Z" fill="white"/>
</svg>
