<svg width="80" height="81" viewBox="0 0 80 81" fill="none" xmlns="http://www.w3.org/2000/svg">
<g clip-path="url(#clip0_101_29)">
<path d="M66.6671 0.633301H13.3346C5.97708 0.658301 0.0270752 6.6108 0.0020752 13.9658V67.2983C0.0020752 74.6283 6.00458 80.6308 13.3346 80.6308H66.6671C73.9971 80.6308 79.9996 74.6283 79.9996 67.2983V13.9658C79.9996 6.6358 73.9971 0.633301 66.6671 0.633301ZM59.3746 56.8183C58.7096 58.4208 57.6546 59.8383 56.3021 60.9333C54.8946 62.0658 53.1246 63.0033 50.9371 63.6683C48.7621 64.3458 46.1721 64.6833 43.1646 64.6833H21.7321V18.0158H44.4021C48.5946 18.0158 51.9546 18.9533 54.4671 20.8808C57.0071 22.8083 58.2571 25.6983 58.2571 29.5783C58.2571 31.9358 57.6846 33.9408 56.5371 35.6058C55.3896 37.2708 53.7371 38.5608 51.6021 39.4608V39.6183C54.4546 40.2183 56.6546 41.5708 58.0996 43.6683C59.5446 45.7658 60.2996 48.4208 60.2996 51.6233C60.2996 53.4208 59.9471 55.1258 59.2971 56.7133L59.3746 56.8033V56.8183ZM50.1171 45.3208C48.7621 44.0708 46.8346 43.4583 44.3621 43.4583H29.9471V58.0158H44.3996C46.8596 58.0158 48.7996 57.3783 50.1671 56.0883C51.5346 54.7983 52.2246 52.9633 52.2246 50.6183C52.1996 48.3133 51.5346 46.5308 50.1671 45.3183H50.1021L50.1171 45.3208ZM48.1246 35.9058C49.4396 34.7858 50.0896 33.1833 50.0896 31.0883C50.0896 28.7433 49.5046 27.0783 48.3196 26.1283C47.1471 25.1783 45.4546 24.6833 43.2296 24.6833H29.8971V37.5608H43.2296C45.1696 37.5608 46.8371 36.9883 48.1121 35.9083L48.1246 35.9058Z" fill="white"/>
</g>
<defs>
<clipPath id="clip0_101_29">
<rect width="80" height="80" fill="white" transform="translate(-0.000366211 0.633301)"/>
</clipPath>
</defs>
</svg>
