<svg width="80" height="81" viewBox="0 0 80 81" fill="none" xmlns="http://www.w3.org/2000/svg">
<path d="M0 0.633301H80V80.6333H0V0.633301Z" fill="white"/>
<path d="M49.3307 32.8527C45.2052 32.8527 41.8616 36.1962 41.8616 40.3218C41.8616 44.4473 45.2052 47.7909 49.3307 47.7909H49.5723C53.6978 47.7909 57.0414 44.4473 57.0414 40.3218C57.0414 36.1962 53.6978 32.8527 49.5723 32.8527H49.3307ZM49.5723 51.4295H49.3307C43.1959 51.4295 38.223 46.4567 38.223 40.3218C38.223 34.1869 43.1959 29.2141 49.3307 29.2141H49.5723C55.7071 29.2141 60.68 34.1869 60.68 40.3218C60.68 46.4567 55.7071 51.4295 49.5723 51.4295ZM30.5124 51.4295C26.3868 51.4295 23.0413 54.7731 23.0413 58.8986C23.0413 63.0242 26.3849 66.3678 30.5104 66.3678C30.5322 66.3678 30.5559 66.3678 30.5777 66.3678H30.5738C30.5797 66.3678 30.5876 66.3678 30.5955 66.3678C34.7943 66.3678 38.2032 62.9747 38.225 58.7798V51.4295H30.5124ZM30.5718 70.0083C30.546 70.0083 30.5144 70.0083 30.4827 70.0083C24.3478 70.0083 19.375 65.0355 19.375 58.9006C19.375 52.7657 24.3478 47.7929 30.4827 47.7929C30.4926 47.7929 30.5025 47.7929 30.5124 47.7929H41.8616V58.7798C41.8378 64.986 36.7997 70.0083 30.5916 70.0083C30.5856 70.0083 30.5797 70.0083 30.5738 70.0083H30.5718ZM30.5124 32.8527C26.3868 32.8527 23.0433 36.1962 23.0433 40.3218C23.0433 44.4473 26.3868 47.7929 30.5124 47.7929L38.223 47.7909V32.8546L30.5124 32.8527ZM41.8596 51.4295H30.5124C24.3775 51.4295 19.4047 46.4567 19.4047 40.3218C19.4047 34.1869 24.3775 29.2141 30.5124 29.2141H41.8616V51.4295H41.8596ZM30.5124 14.2758C26.3868 14.2758 23.0433 17.6194 23.0433 21.745C23.0433 25.8705 26.3868 29.2141 30.5124 29.2141H38.223V14.2738L30.5124 14.2758ZM41.8596 32.8527H30.5124C24.3775 32.8527 19.4027 27.8798 19.4027 21.743C19.4027 15.6061 24.3755 10.6333 30.5124 10.6333H41.8616V32.8507L41.8596 32.8527ZM41.8596 29.2141H49.5723C53.6899 29.2042 57.0216 25.8646 57.0216 21.745C57.0216 17.6253 53.6879 14.2857 49.5703 14.2758H41.8596V29.2141ZM49.5723 32.8527L38.223 32.8546V10.6353H49.5723C55.7071 10.6353 60.6819 15.6081 60.6819 21.745C60.6819 27.8818 55.7091 32.8527 49.5723 32.8527Z" fill="black"/>
</svg>
