<svg width="20" height="20" viewBox="0 0 20 20" fill="none" xmlns="http://www.w3.org/2000/svg">
<g clip-path="url(#clip0_208_521)">
<path d="M10 0.247451C4.47562 0.247451 0 4.72682 0 10.2474C0 14.6681 2.865 18.415 6.83562 19.7368C7.33752 19.8312 7.51876 19.5218 7.51876 19.2543C7.51876 19.0168 7.51314 18.3887 7.50938 17.555C4.72625 18.1574 4.14 16.2106 4.14 16.2106C3.68438 15.0581 3.02688 14.7487 3.02688 14.7487C2.12188 14.1306 3.09875 14.1437 3.09875 14.1437C4.10125 14.2118 4.62875 15.1718 4.62875 15.1718C5.52062 16.7018 6.96876 16.2593 7.54186 16.0018C7.62938 15.3574 7.89 14.9143 8.17376 14.6674C5.95376 14.4168 3.61938 13.5574 3.61938 9.72557C3.61938 8.63119 4.00688 7.73995 4.6475 7.03995C4.53688 6.78933 4.19812 5.77057 4.73562 4.39308C4.73562 4.39308 5.57252 4.1262 7.48562 5.41872C8.30057 5.19705 9.1411 5.08338 9.98562 5.08057C10.8356 5.08619 11.685 5.19743 12.4856 5.41872C14.3875 4.1262 15.2238 4.39308 15.2238 4.39308C15.7606 5.77057 15.4219 6.78872 15.3244 7.03995C15.9588 7.73995 16.3462 8.63181 16.3462 9.72557C16.3462 13.5662 14.0088 14.4131 11.7862 14.6574C12.1338 14.9568 12.4594 15.5724 12.4594 16.5068C12.4594 17.8443 12.4469 18.9218 12.4469 19.2474C12.4469 19.5074 12.6219 19.82 13.1369 19.7193C17.1369 18.4112 19.9988 14.6612 19.9988 10.2468C19.9988 4.7262 15.5231 0.246826 9.99876 0.246826L10 0.247451Z" fill="white"/>
</g>
<defs>
<clipPath id="clip0_208_521">
<rect width="20" height="20" fill="white"/>
</clipPath>
</defs>
</svg>
