<svg width="81" height="81" viewBox="0 0 81 81" fill="none" xmlns="http://www.w3.org/2000/svg">
<path fill-rule="evenodd" clip-rule="evenodd" d="M17.1436 0.633301C7.75471 0.633301 0.143555 8.24446 0.143555 17.6333V21.3552H17.5994C18.9474 18.6378 21.7501 16.7699 24.989 16.7699C28.228 16.7699 31.0307 18.6378 32.3786 21.3552H49.367C50.7149 18.6378 53.5176 16.7699 56.7566 16.7699C61.3096 16.7699 65.0005 20.4608 65.0005 25.0138C65.0005 29.5668 61.3096 33.2577 56.7566 33.2577C53.3122 33.2577 50.3612 31.1454 49.1283 28.1454H33.2807L54.0527 48.9174C54.8886 48.6321 55.785 48.4772 56.7175 48.4772C61.2705 48.4772 64.9614 52.1682 64.9614 56.7211C64.9614 61.2741 61.2705 64.965 56.7175 64.965C52.1646 64.965 48.4736 61.2741 48.4736 56.7211C48.4736 55.6037 48.696 54.5382 49.0988 53.5664L28.1587 32.6263C27.1829 33.0331 26.1122 33.2577 24.989 33.2577C21.5446 33.2577 18.5936 31.1454 17.3607 28.1454H0.143555V40.6333V63.6333C0.143555 73.0221 7.7547 80.6333 17.1435 80.6333H40.2997H63.4557C72.8446 80.6333 80.4557 73.0221 80.4557 63.6333V40.6333V17.6333C80.4557 8.24446 72.8446 0.633301 63.4558 0.633301H40.2997H17.1436Z" fill="white"/>
</svg>
