<svg width="80" height="81" viewBox="0 0 80 81" fill="none" xmlns="http://www.w3.org/2000/svg">
<rect x="-0.000366211" y="0.633301" width="80" height="80" fill="white"/>
<g clip-path="url(#clip0_101_44)">
<path d="M60.8716 52.0476C60.8716 52.0476 55.2858 67.1108 36.0553 63.6041C35.7527 63.5478 35.4625 63.4426 35.1686 63.3537C35.0998 63.3336 35.0304 63.3116 34.9617 63.2919C34.6729 63.2021 34.3871 63.11 34.1031 63.011C34.0705 62.9996 34.0395 62.989 34.0066 62.9773C33.7478 62.8863 33.4905 62.7897 33.2365 62.6922C33.1699 62.6662 33.1037 62.641 33.0376 62.6139C32.7639 62.5058 32.4916 62.3928 32.2222 62.2748C32.1725 62.2529 32.1246 62.2309 32.0742 62.2087C31.8384 62.1038 31.6056 61.9952 31.3747 61.8848C31.3147 61.8544 31.2544 61.8263 31.1941 61.7978C31.1612 61.7814 31.1258 61.7649 31.0921 61.7481C30.943 61.6736 30.7975 61.5962 30.6506 61.5193C30.5373 61.4608 30.4222 61.4039 30.3096 61.3435C30.1017 61.2302 29.8966 61.1151 29.6926 60.9974C29.6169 60.9542 29.5406 60.9126 29.4656 60.8691C29.1886 60.7061 28.9144 60.5368 28.6443 60.3657C28.568 60.3168 28.4924 60.2649 28.4171 60.2144C28.2409 60.1004 28.0647 59.9863 27.8922 59.8672C27.8739 59.8547 27.8564 59.8416 27.8385 59.8288C27.7716 59.7834 27.708 59.737 27.6415 59.6888C27.4595 59.5623 27.2793 59.4329 27.101 59.3014C27.0148 59.2363 26.9288 59.1709 26.8433 59.1054C26.6817 58.9822 26.521 58.8561 26.3616 58.7289C26.2823 58.6654 26.2019 58.6025 26.1226 58.5382C25.9282 58.3781 25.7344 58.215 25.5447 58.0506C25.5088 58.0192 25.4709 57.9884 25.4343 57.9556C25.4306 57.9541 25.4281 57.9512 25.424 57.9478C25.2088 57.7592 24.9975 57.5659 24.7881 57.3685C24.7249 57.3108 24.6619 57.249 24.5984 57.1884C24.4419 57.0381 24.287 56.8867 24.1346 56.7333C24.0713 56.6711 24.0088 56.6083 23.9482 56.5454C23.7512 56.3429 23.5567 56.1401 23.3667 55.9328C23.3597 55.9234 23.3528 55.9178 23.3445 55.9087C23.3411 55.9051 23.3364 55.9002 23.3331 55.8962C23.1387 55.682 22.9479 55.4631 22.7611 55.2434C22.7088 55.1817 22.6563 55.1185 22.6047 55.056C22.4655 54.8882 22.3284 54.7208 22.1939 54.5512C22.138 54.4806 22.0821 54.4094 22.0269 54.3385C21.876 54.1437 21.7268 53.9474 21.5824 53.7478C21.5554 53.7105 21.5265 53.674 21.5005 53.6374C21.495 53.6313 21.4903 53.6246 21.4866 53.6184C21.3193 53.387 21.1577 53.1513 20.9991 52.9152C20.9498 52.8428 20.9034 52.7683 20.8558 52.6936C20.741 52.519 20.6285 52.3442 20.5196 52.1674C20.4626 52.0767 20.4085 51.9858 20.3536 51.8946C20.2546 51.7295 20.1577 51.5643 20.0638 51.3976C20.0101 51.3033 19.9571 51.2112 19.9051 51.1143C19.8762 51.0632 19.8448 51.0105 19.8167 50.9568C19.7673 50.8675 19.7227 50.7745 19.6745 50.6834C19.6 50.5405 19.5243 50.3969 19.4523 50.2514C16.4151 44.1787 15.9195 36.7432 19.896 31.0277L22.9997 27.0912C19.4979 33.8594 21.0718 42.101 25.4526 48.076C25.6108 48.2935 25.7728 48.508 25.9383 48.7225C25.9895 48.7872 26.0409 48.8523 26.0922 48.9144C26.2299 49.0899 26.3706 49.2631 26.5128 49.4346C26.5641 49.4949 26.6141 49.554 26.6664 49.6162C26.8565 49.8406 27.0509 50.0635 27.2505 50.281C27.26 50.2915 27.2691 50.3011 27.2783 50.3113C27.4669 50.5171 27.6591 50.7202 27.8547 50.9206C27.9153 50.982 27.9771 51.0427 28.0389 51.1041C28.1924 51.2609 28.3492 51.413 28.5086 51.5643C28.5688 51.6242 28.6295 51.6819 28.6921 51.7415C28.9073 51.9418 29.1244 52.141 29.3455 52.3355C29.3686 52.3556 29.3923 52.3742 29.4135 52.3928C29.6182 52.5708 29.8254 52.7441 30.0352 52.9166C30.1083 52.9762 30.1829 53.0357 30.2574 53.095C30.4222 53.2276 30.5889 53.3567 30.7567 53.4849C30.8368 53.5464 30.919 53.6089 31.002 53.6702C31.1844 53.8055 31.3686 53.9385 31.5547 54.0701C31.6179 54.1128 31.6793 54.1593 31.7433 54.2024C31.9356 54.3354 32.1315 54.4648 32.3281 54.5913C32.4019 54.6403 32.4751 54.6915 32.5496 54.739C32.8208 54.9108 33.095 55.0796 33.372 55.2427C33.4433 55.2836 33.5145 55.3219 33.5847 55.3615C33.7938 55.4824 34.0032 55.6015 34.2166 55.7156C34.3321 55.7798 34.4509 55.838 34.5678 55.8998C34.7426 55.9897 34.9173 56.0811 35.0941 56.1673C35.161 56.2002 35.226 56.231 35.2915 56.262C35.517 56.3706 35.7433 56.4751 35.9721 56.5789C36.0262 56.6023 36.0788 56.6268 36.1332 56.6501C36.3997 56.7668 36.669 56.8786 36.9406 56.9856C37.0104 57.0134 37.0803 57.0401 37.1504 57.068C37.3975 57.1637 37.6464 57.2566 37.8982 57.3453C37.9373 57.3592 37.9764 57.3735 38.0144 57.3874C38.2951 57.484 38.5776 57.576 38.8623 57.663C38.935 57.6857 39.0078 57.7076 39.0823 57.7295C39.3739 57.8157 39.6638 57.909 39.9628 57.9767C47.853 59.7724 56.1801 58.1597 60.8716 52.0476ZM33.0347 42.3908C33.466 43.0082 33.9434 43.7431 34.5154 44.2393C34.7222 44.4676 34.9393 44.6902 35.1605 44.9091C35.216 44.966 35.2734 45.0209 35.3308 45.0768C35.545 45.2852 35.7643 45.4902 35.9895 45.6894C35.9989 45.6963 36.0074 45.7059 36.0165 45.7125C36.0191 45.7154 36.0213 45.7161 36.0231 45.719C36.2732 45.9376 36.5312 46.1485 36.7929 46.3557C36.851 46.4003 36.9087 46.4467 36.9676 46.4921C37.2304 46.6934 37.4984 46.8915 37.7732 47.0801C37.7816 47.0859 37.7881 47.0919 37.7966 47.0977C37.9175 47.1817 38.0411 47.2599 38.1635 47.3403C38.2228 47.3784 38.2787 47.4192 38.3378 47.4551C38.5344 47.5812 38.733 47.7037 38.935 47.8213C38.9636 47.8389 38.9914 47.8535 39.0195 47.8699C39.1931 47.9701 39.3703 48.0692 39.5473 48.1649C39.6086 48.1993 39.6715 48.2299 39.7344 48.2628C39.8565 48.3264 39.9793 48.3918 40.1035 48.4536C40.1222 48.4624 40.1416 48.4711 40.1595 48.4789C40.4128 48.6035 40.6682 48.7241 40.9296 48.8374C40.9852 48.8622 41.0429 48.8841 41.0996 48.9076C41.3083 48.996 41.5188 49.0827 41.7305 49.1638C41.8203 49.1978 41.9114 49.2303 42.0006 49.2628C42.1931 49.3345 42.3858 49.3996 42.5802 49.4646C42.6684 49.4927 42.7546 49.5216 42.8426 49.5487C43.119 49.6342 43.3923 49.7431 43.6807 49.7906C58.5284 52.2508 61.956 40.8189 61.956 40.8189C58.8658 45.2691 52.8819 47.3923 46.4963 45.7352C46.2131 45.6605 45.9336 45.5791 45.6561 45.4917C45.5705 45.466 45.4872 45.4384 45.4027 45.4101C45.2054 45.3462 45.0091 45.2782 44.8144 45.2073C44.7255 45.1748 44.6364 45.1423 44.5489 45.1086C44.3358 45.0267 44.125 44.942 43.9163 44.8535C43.8589 44.8287 43.8015 44.8067 43.7456 44.7811C43.4836 44.6669 43.2256 44.5471 42.9711 44.4213C42.8399 44.3572 42.7116 44.2895 42.5822 44.2232C42.5076 44.1848 42.4327 44.1463 42.3582 44.1079C42.193 44.0181 42.0285 43.9251 41.8665 43.8307C41.8281 43.8085 41.788 43.7875 41.7488 43.7643C41.5482 43.6466 41.3501 43.5254 41.1538 43.401C41.0934 43.3625 41.035 43.3206 40.9747 43.2809C40.8449 43.1971 40.7159 43.1121 40.5887 43.0259C40.3153 42.8372 40.0492 42.6392 39.7864 42.4389C39.7258 42.3912 39.6655 42.3446 39.6055 42.2969C36.8109 40.0899 34.5957 37.0742 33.5415 33.6546C32.4381 30.108 32.6761 26.127 34.5887 22.8963L32.2389 26.2131C29.3636 30.3514 29.5197 35.891 31.7626 40.2677C32.1393 41.0015 32.5622 41.713 33.0347 42.3908ZM48.6846 37.271C48.807 37.3167 48.9291 37.3573 49.0529 37.3992C49.107 37.4158 49.1611 37.4344 49.2156 37.4505C49.3903 37.5055 49.5639 37.5693 49.7445 37.6033C57.9433 39.1873 60.1666 33.396 60.7587 32.5438C58.8106 35.3483 55.5376 36.0216 51.5204 35.047C51.2036 34.9695 50.8549 34.8549 50.5485 34.7467C50.1564 34.6069 49.7708 34.4476 49.3951 34.2672C48.6813 33.9245 48.0022 33.5088 47.3714 33.0328C43.7774 30.3056 41.545 25.1032 43.89 20.8665L42.621 22.6156C40.9258 25.1105 40.7595 28.2088 41.9353 30.9644C43.1758 33.8889 45.7178 36.1835 48.6846 37.271Z" fill="black"/>
</g>
<defs>
<clipPath id="clip0_101_44">
<rect width="45" height="45" fill="white" transform="translate(17 20)"/>
</clipPath>
</defs>
</svg>
