<svg width="81" height="81" viewBox="0 0 81 81" fill="none" xmlns="http://www.w3.org/2000/svg">
<path fill-rule="evenodd" clip-rule="evenodd" d="M0.599609 0.0666504H80.5996V80.0667H0.599609V0.0666504ZM44.0115 36.7333H36.7566V63.3215C36.7566 64.1059 36.0899 67.3215 32.7174 67.1647C29.3448 67.0078 27.8154 63.2431 27.8154 63.2431L21.8154 66.9294C21.8154 66.9294 25.1488 73.7529 31.8546 73.7529C38.5605 73.7529 44.0115 71.2431 44.0115 63.3215V36.7333ZM72.0901 42.3019C69.5689 37.9168 65.4635 36.0958 61.1882 36.3412C56.9129 36.5865 50.6783 38.1902 50.5215 46.6549C50.3647 55.1195 60.6784 58.0666 60.6784 58.0666C64.9777 59.8749 66.9986 60.9457 66.8745 63.4C66.4095 66.4146 64.4039 67.2039 61.8156 67.2039C59.2274 67.2039 56.6562 66.0421 54.2862 62.6549L48.3254 66.1059C51.5139 71.1503 55.2666 73.8313 61.8156 73.7921C68.3647 73.7529 74.5999 70.3804 74.4039 63.4C74.2078 56.4196 70.8349 54.5807 64.0117 51.4C59.5144 49.6356 58.1686 48.8509 57.9333 46.6549C57.698 44.4588 59.2274 42.8117 61.4235 42.8117C63.6196 42.8117 65.2076 43.9888 66.3254 46.0666L72.0901 42.3019Z" fill="white"/>
</svg>
