<svg width="80" height="81" viewBox="0 0 80 81" fill="none" xmlns="http://www.w3.org/2000/svg">
<g clip-path="url(#clip0_101_23)">
<path d="M21.8874 18.7518L35.0427 45.0624L20.9364 49.7645L13.8528 21.43L21.8874 18.7518Z" fill="white"/>
<path d="M49.4784 62.0082L42.563 48.1774L59.4012 42.5646L65.614 52.3268L49.4784 62.0082Z" fill="white"/>
<path d="M64.9804 35.0832L61.6652 36.1881L58.9031 31.847L61.9767 31.0785L64.9804 35.0832Z" fill="white"/>
<path fill-rule="evenodd" clip-rule="evenodd" d="M-0.000366211 13.9666C-0.000366211 6.60285 5.96918 0.633301 13.333 0.633301H66.6663C74.03 0.633301 79.9996 6.60285 79.9996 13.9666V67.3C79.9996 74.6637 74.03 80.6333 66.6663 80.6333H13.333C5.96918 80.6333 -0.000366211 74.6637 -0.000366211 67.3V13.9666ZM25.6234 14.2981C25.0299 13.1111 23.6539 12.5411 22.3949 12.9608L9.82353 17.1513C8.50161 17.5919 7.74177 18.9761 8.07974 20.3279L16.4607 53.8517C16.6409 54.5725 17.1134 55.1853 17.7645 55.5426C18.4156 55.9 19.1864 55.9698 19.891 55.7346L37.452 49.8811L45.996 66.9688C46.3281 67.6333 46.9224 68.1288 47.6355 68.3368C48.3486 68.5442 49.1161 68.445 49.7531 68.0632L70.7052 55.4914C71.3223 55.1213 71.7634 54.5176 71.9287 53.8176C72.094 53.1175 71.9692 52.3802 71.5831 51.7733L64.6167 40.8262L70.1767 38.9728C70.99 38.7018 71.6231 38.0563 71.8786 37.2382C72.1346 36.42 71.981 35.5288 71.4668 34.843L65.181 26.462C64.5372 25.6038 63.4418 25.2148 62.4012 25.475L54.0199 27.5703C53.1884 27.7782 52.5075 28.3731 52.1899 29.1693C51.8723 29.9655 51.9568 30.8658 52.417 31.589L56.4503 37.9266L40.1537 43.3587L25.6234 14.2981Z" fill="white"/>
</g>
<defs>
<clipPath id="clip0_101_23">
<rect width="80" height="80" fill="white" transform="translate(-0.000366211 0.633301)"/>
</clipPath>
</defs>
</svg>
