<svg width="111" height="27" viewBox="0 0 111 27" fill="none" xmlns="http://www.w3.org/2000/svg">
<path d="M9.92 22.72L0 15.776V11.744L9.92 4.8V9.312L3.744 13.76L9.92 18.208V22.72Z" fill="#4CAEE5"/>
<path d="M13.134 25.92L21.07 0H23.886L15.918 25.92H13.134Z" fill="#4CAEE5"/>
<path d="M26.89 25.92V0H32.074V14.368L36.618 7.424H42.474L37.546 15.008L42.41 25.92H36.714L33.45 17.12L32.074 18.88V25.92H26.89Z" fill="#4CAEE5"/>
<path d="M48.2025 26.24C46.8372 26.24 45.7812 25.76 45.0345 24.8C44.2878 23.84 43.9145 22.4213 43.9145 20.544V12.896C43.9145 11.744 44.0745 10.7413 44.3945 9.888C44.7145 9.01333 45.1945 8.33067 45.8345 7.84C46.4745 7.34934 47.2638 7.104 48.2025 7.104C48.8852 7.104 49.5358 7.24267 50.1545 7.52C50.7732 7.776 51.3385 8.128 51.8505 8.576V0H57.0665V25.92H51.8505V24.48C51.2745 25.0347 50.6772 25.472 50.0585 25.792C49.4398 26.0907 48.8212 26.24 48.2025 26.24ZM50.4745 22.912C50.6452 22.912 50.8478 22.8693 51.0825 22.784C51.3385 22.6987 51.5945 22.5813 51.8505 22.432V10.752C51.6372 10.6453 51.4132 10.5493 51.1785 10.464C50.9438 10.3787 50.7198 10.336 50.5065 10.336C50.0372 10.336 49.6958 10.5387 49.4825 10.944C49.2692 11.328 49.1625 11.7973 49.1625 12.352V20.864C49.1625 21.248 49.2052 21.6 49.2905 21.92C49.3758 22.2187 49.5145 22.464 49.7065 22.656C49.8985 22.8267 50.1545 22.912 50.4745 22.912Z" fill="white"/>
<path d="M60.2962 25.92V7.424H65.4163V8.896C66.0989 8.23467 66.8029 7.76533 67.5283 7.488C68.2749 7.21067 69.0322 7.072 69.8002 7.072C70.5469 7.072 71.1869 7.264 71.7203 7.648C72.2749 8.01067 72.6909 8.55467 72.9683 9.28C73.6936 8.46933 74.4509 7.904 75.2402 7.584C76.0509 7.24267 76.8616 7.072 77.6722 7.072C78.3976 7.072 79.0269 7.25333 79.5602 7.616C80.0936 7.95733 80.5096 8.46933 80.8083 9.152C81.1069 9.81333 81.2562 10.6133 81.2562 11.552V25.92H76.1363V12.096C76.1363 11.584 76.0403 11.2213 75.8483 11.008C75.6776 10.7733 75.4109 10.656 75.0482 10.656C74.8349 10.656 74.5683 10.72 74.2483 10.848C73.9283 10.9547 73.6189 11.1147 73.3203 11.328C73.3203 11.3707 73.3203 11.4133 73.3203 11.456C73.3203 11.4773 73.3203 11.5093 73.3203 11.552V25.92H68.2643V12.096C68.2643 11.584 68.1682 11.2213 67.9762 11.008C67.7842 10.7733 67.5069 10.656 67.1442 10.656C66.9096 10.656 66.6322 10.72 66.3122 10.848C66.0136 10.9547 65.7149 11.1147 65.4163 11.328V25.92H60.2962Z" fill="white"/>
<path d="M93.574 26.24C92.8913 26.24 92.2087 26.0907 91.526 25.792C90.8647 25.472 90.2247 25.0453 89.606 24.512V25.92H84.39V0H89.606V8.768C90.246 8.21333 90.9073 7.79733 91.59 7.52C92.294 7.24267 92.9767 7.104 93.638 7.104C94.342 7.104 94.9393 7.24267 95.43 7.52C95.942 7.79733 96.358 8.192 96.678 8.704C96.998 9.19467 97.2327 9.77067 97.382 10.432C97.5313 11.0933 97.606 11.7973 97.606 12.544V20.512C97.606 21.664 97.446 22.6667 97.126 23.52C96.8273 24.3733 96.3793 25.0453 95.782 25.536C95.1847 26.0053 94.4487 26.24 93.574 26.24ZM91.046 22.88C91.3873 22.88 91.654 22.784 91.846 22.592C92.038 22.4 92.1767 22.1547 92.262 21.856C92.3473 21.536 92.39 21.184 92.39 20.8V12.16C92.39 11.7973 92.3473 11.4773 92.262 11.2C92.1767 10.9013 92.038 10.6667 91.846 10.496C91.6753 10.3253 91.43 10.24 91.11 10.24C90.8327 10.24 90.566 10.304 90.31 10.432C90.0753 10.5387 89.8407 10.6773 89.606 10.848V22.368C89.8407 22.5173 90.0753 22.6453 90.31 22.752C90.566 22.8373 90.8113 22.88 91.046 22.88Z" fill="white"/>
<path d="M100.674 22.72V18.208L106.882 13.728L100.674 9.312V4.8L110.593 11.744V15.776L100.674 22.72Z" fill="#4CAEE5"/>
</svg>
