<svg width="20" height="20" viewBox="0 0 20 20" fill="none" xmlns="http://www.w3.org/2000/svg">
<path d="M16.667 18.3334H3.33366C2.89163 18.3334 2.46771 18.1578 2.15515 17.8452C1.84259 17.5327 1.66699 17.1087 1.66699 16.6667V7.54085C1.68084 7.26542 1.76181 6.99752 1.90284 6.76047C2.04386 6.52342 2.24068 6.32447 2.47616 6.18085L9.1428 2.18087C9.40175 2.02561 9.69799 1.9436 9.9999 1.9436C10.3018 1.9436 10.598 2.02561 10.857 2.18087L17.5237 6.18085C18.0245 6.48337 18.332 7.02504 18.3337 7.61004V16.6667C18.3337 17.1087 18.1581 17.5327 17.8455 17.8452C17.5329 18.1578 17.109 18.3334 16.667 18.3334ZM3.33366 8.22337V16.6667H16.667V8.22337L10.0003 12.6675L3.33366 8.22337ZM10.0003 3.61004L4.43033 6.95171L10.0003 10.665L15.5695 6.95171L10.0003 3.61004Z" fill="white"/>
</svg>
