<svg width="80" height="81" viewBox="0 0 80 81" fill="none" xmlns="http://www.w3.org/2000/svg">
<rect width="80" height="80" transform="translate(-0.000366211 0.633301)" fill="white"/>
<path d="M65.9088 39.1633C64.8253 21.6724 45.477 6.50334 37.5829 6.34856C29.534 6.19376 14.6745 24.7682 14.0553 43.6521C13.4362 61.2978 28.7601 73.3712 35.4159 74.919C35.5707 66.5605 36.3446 35.9128 36.3446 32.3527C36.6542 25.0777 36.9637 13.6235 38.202 13.314C38.976 13.1592 39.9047 19.5054 39.7499 23.2203C39.7499 23.9942 39.7499 26.316 39.7499 29.5665C41.143 28.1735 42.5361 26.7804 43.31 26.0065C45.6318 23.6847 46.7153 23.9942 45.477 26.0065C44.8579 27.2447 41.9169 31.424 39.7499 34.3649C39.7499 40.4016 39.7499 47.9862 39.7499 54.9515C42.8456 51.3915 46.5605 47.2122 48.5727 45.3548C52.752 41.3303 53.2163 41.9495 51.2041 45.9739C49.9658 48.4505 44.0839 55.2611 39.9047 60.6787C39.9047 66.8701 39.9047 72.1329 39.9047 74.6094C51.3589 72.2876 66.9923 56.4994 65.9088 39.1633Z" fill="black"/>
</svg>
