<svg width="80" height="81" viewBox="0 0 80 81" fill="none" xmlns="http://www.w3.org/2000/svg">
<rect y="0.633301" width="80" height="80" fill="white"/>
<path d="M57.4351 35.3055H54.6351L53.102 43.1706H55.5906C55.7237 43.1801 55.8806 43.1873 56.0375 43.1873C57.2425 43.1873 58.3621 42.8331 59.3033 42.2246L59.2795 42.2389C60.1614 41.4545 60.7603 40.3707 60.9148 39.1466L60.9172 39.1228C61.0313 38.7948 61.0978 38.4192 61.0978 38.0271C61.0978 37.3354 60.8911 36.6912 60.5369 36.1541L60.544 36.166C59.8381 35.6098 58.9373 35.2723 57.9556 35.2723C57.7726 35.2723 57.5896 35.2841 57.4113 35.3079L57.4351 35.3055ZM65.1433 39.4104C64.965 40.3564 64.6489 41.2002 64.2163 41.9679L64.2377 41.9275C63.7766 42.7309 63.2228 43.4202 62.5786 44.0097L62.5715 44.0144C61.8204 44.7322 60.9101 45.2932 59.8975 45.6354L59.8476 45.6497C58.7994 45.9611 57.5967 46.1417 56.3488 46.1417C56.2347 46.1417 56.123 46.1393 56.0113 46.137H56.028H52.5221L51.5499 51.1332H47.4569L51.1102 32.3439H58.9777C59.1512 32.3273 59.3556 32.3178 59.56 32.3178C61.3522 32.3178 62.978 33.0404 64.1569 34.2098C64.9151 35.1843 65.3738 36.4274 65.3738 37.7751C65.3738 38.3574 65.2883 38.9208 65.129 39.4508L65.1385 39.4104H65.1433ZM42.5796 46.1393L44.1935 37.825C44.2767 37.5992 44.3242 37.3401 44.3242 37.0692C44.3242 36.6342 44.2006 36.2278 43.9867 35.8831L43.9915 35.8926C43.528 35.5551 42.948 35.3507 42.3205 35.3507C42.1898 35.3507 42.0614 35.3602 41.9355 35.3768L41.9497 35.3745H38.7053L36.6136 46.1417H32.5515L36.2048 27.3501H40.2645L39.2924 32.3463H42.91C43.131 32.3225 43.3854 32.3083 43.6444 32.3083C45.13 32.3083 46.5086 32.767 47.6447 33.5538L47.6209 33.5395C48.2318 34.2312 48.605 35.1463 48.605 36.1469C48.605 36.5938 48.5313 37.024 48.3934 37.4257L48.4006 37.3972L46.7011 46.1417L42.5796 46.1393ZM30.6263 44.0144C29.8752 44.7346 28.9648 45.2932 27.9523 45.6354L27.9024 45.6497C26.8542 45.9611 25.6515 46.1417 24.406 46.1417C24.2943 46.1417 24.1802 46.1393 24.0685 46.137H24.0851H20.5768L19.6047 51.1308H15.5117L19.165 32.3416H27.0372C27.2107 32.3249 27.4151 32.3154 27.6195 32.3154C29.4117 32.3154 31.0375 33.038 32.2164 34.2074C32.9746 35.1819 33.431 36.425 33.431 37.7727C33.431 38.3574 33.3454 38.9208 33.1862 39.4532L33.1957 39.4128C32.8487 41.2525 31.9288 42.8379 30.631 44.0097L30.6239 44.0168L30.6263 44.0144ZM40.3097 21.8833C20.6268 21.8833 4.66602 30.2761 4.66602 40.6321C4.66602 50.9882 20.6244 59.3833 40.3097 59.3833C59.995 59.3833 75.9533 50.9858 75.9533 40.6321C75.9533 30.2784 59.995 21.8833 40.3097 21.8833ZM25.4875 35.3055H22.6827L21.152 43.1706H23.6406C23.7737 43.1801 23.9282 43.1873 24.0851 43.1873C25.2902 43.1873 26.4121 42.8331 27.3533 42.2246L27.3295 42.2389C28.2114 41.4569 28.808 40.3707 28.9601 39.1466L28.9625 39.1228C29.0789 38.7948 29.1455 38.4169 29.1455 38.0247C29.1455 37.3354 28.9411 36.6912 28.5869 36.1564L28.594 36.1683C27.8881 35.6121 26.9873 35.2746 26.0056 35.2746C25.8226 35.2746 25.6396 35.2865 25.4613 35.3103L25.4827 35.3079L25.4875 35.3055Z" fill="black"/>
</svg>
