<svg width="80" height="81" viewBox="0 0 80 81" fill="none" xmlns="http://www.w3.org/2000/svg">
<rect y="0.633301" width="80" height="80" fill="white"/>
<path d="M28.7099 39.3522C28.7099 38.3319 27.5978 37.2483 25.6734 37.2483C23.5124 37.2483 21.1384 38.6627 20.7756 41.4842C20.4049 44.334 22.3924 45.6005 24.3957 45.6005C26.399 45.6005 27.448 44.9039 28.5206 43.9751C27.5978 42.9408 26.4069 43.4192 26.1782 43.5248C25.9258 43.6374 25.6024 43.7922 24.9399 43.7922C24.167 43.7922 23.3783 43.4826 23.3783 42.1949C28.3313 41.7587 28.7099 40.3725 28.7099 39.3522ZM26.257 39.5211C26.2255 39.8377 26.0835 40.3795 23.5755 40.6821C24.1039 39.0074 25.1134 38.8808 25.5788 38.8808C26.0125 38.8808 26.2886 39.1833 26.257 39.5211ZM17.8653 39.7955C17.8653 39.7955 16.8006 42.7789 16.7139 43.0252C16.6823 42.7719 15.9015 37.4172 15.9015 37.4172C14.0875 37.4172 13.1174 38.5712 12.6048 39.7885C12.6048 39.7885 11.3113 42.7789 11.2009 43.0322C11.193 42.8 11.0037 39.8237 11.0037 39.8237C10.8933 38.3319 9.36325 37.4243 8.125 37.4243L9.62352 45.5372C11.5243 45.5302 12.5496 44.3832 13.0859 43.1659C13.0859 43.1659 14.2295 40.5273 14.2768 40.4077C14.2847 40.5203 15.097 45.5372 15.097 45.5372C17.0057 45.5372 18.031 44.4606 18.5831 43.2855L21.2567 37.4243C19.3718 37.4243 18.378 38.5712 17.8653 39.7955ZM35.7135 37.2343C34.5383 37.2343 33.6392 37.8042 32.8821 38.6415V38.6345L33.5603 33.7583C31.9987 33.7583 30.7289 34.9686 30.4844 36.7699L29.3014 45.4739C30.2005 45.4739 31.1548 45.2417 31.6675 44.6506C32.1249 45.1783 32.8111 45.6005 33.8285 45.6005C36.4627 45.6005 38.2688 42.8704 38.2688 40.3092C38.253 37.9731 36.9833 37.2343 35.7135 37.2343ZM35.469 41.4209C35.1929 42.8493 34.3017 43.8203 33.442 43.8203C32.5745 43.8203 32.2038 43.4755 32.2038 43.4755C32.3694 42.2231 32.4719 41.4561 32.7874 40.7947C33.1029 40.1333 33.8521 39.0778 34.6329 39.0778C35.398 39.0778 35.745 39.9855 35.469 41.4209ZM44.8465 37.4243H43.0089L43.0167 37.3398C43.1429 36.2703 43.4269 35.7074 44.3654 35.6159C45.0043 35.5596 45.2882 35.2641 45.3592 34.9404C45.4144 34.6871 45.5879 33.8076 45.5879 33.8076C41.8968 33.7864 40.7374 35.2078 40.4377 37.375L40.4298 37.4243H40.3904C39.791 37.4243 39.1285 38.0294 39.0181 38.7963L38.9786 39.0778H40.209L39.1758 46.6912L38.8603 48.0562C38.8998 48.0562 38.9471 48.0632 38.9865 48.0632C40.7138 48.007 41.8179 46.7897 42.0624 45.0235L42.8669 39.0778H43.4426C44.0105 39.0778 44.673 38.5712 44.7913 37.7268L44.8465 37.4243ZM54.4055 37.2835C52.2839 37.2835 50.2806 38.6767 49.6654 40.865C49.0502 43.0533 49.9809 45.6427 53.1041 45.6427C56.2195 45.6427 58.0177 42.9478 58.0177 40.7032C58.0177 38.4727 56.322 37.2835 54.4055 37.2835ZM55.2651 41.3505C55.1547 42.3427 54.6657 43.8485 53.325 43.8485C51.9763 43.8485 52.1656 42.0894 52.2997 41.252C52.4416 40.3584 53.0016 39.0848 54.2083 39.0848C55.2888 39.0848 55.3913 40.2318 55.2651 41.3505ZM68.4994 39.7955C68.4994 39.7955 67.4347 42.7789 67.3479 43.0252C67.3164 42.7719 66.5356 37.4172 66.5356 37.4172C64.7216 37.4172 63.7515 38.5712 63.2388 39.7885C63.2388 39.7885 61.9454 42.7789 61.8349 43.0322C61.8271 42.8 61.6378 39.8237 61.6378 39.8237C61.5274 38.3319 59.9973 37.4243 58.759 37.4243L60.2497 45.5372C62.1504 45.5302 63.1757 44.3832 63.712 43.1659C63.712 43.1659 64.8556 40.5273 64.8951 40.4077C64.903 40.5203 65.7153 45.5372 65.7153 45.5372C67.6239 45.5372 68.6492 44.4606 69.2013 43.2855L71.875 37.4243C69.9979 37.4243 69.0042 38.5712 68.4994 39.7955ZM46.5816 33.8076L45.0358 44.9321L44.7203 46.3042C44.7598 46.3042 44.8071 46.3112 44.8465 46.3112C46.5107 46.2901 47.6937 44.9884 47.9145 43.3489L48.8058 36.9669C49.0739 35.0178 47.7726 33.8076 46.5816 33.8076Z" fill="black"/>
</svg>
