<?xml version="1.0" encoding="UTF-8"?>
<svg id="my-svg" version="1.1" viewBox="0 0 6144 2900" xmlns="http://www.w3.org/2000/svg">
<path id="path1" d="m0 2c0 2 0.667 2 3070.9 2 2363.8 0 3071.1 0.273 3071.7 1.184 0.74 1.196 2.164-1.223 2.317-3.934 0.056-1-615.06-1.25-3072.4-1.25-3071.8 0-3072.5 0-3072.5 2m297 1182.6c-0.825 0.235-10.05 0.888-20.5 1.451-18.701 1.007-30.171 2.07-42 3.891-12.1 1.863-26.365 4.31-35.5 6.089-13.668 2.662-13.993 2.735-27.25 6.079-2.338 0.59-5.717 1.315-7.509 1.611-1.793 0.296-3.507 0.938-3.809 1.427-0.303 0.49-1.504 0.89-2.67 0.89s-3.502 0.448-5.191 0.995c-22.955 7.435-28.37 9.227-30.071 9.952-1.1 0.468-3.575 1.392-5.5 2.053s-4.513 1.606-5.75 2.101c-1.237 0.494-3.263 1.304-4.5 1.798-1.237 0.495-3.825 1.44-5.75 2.101s-4.513 1.606-5.75 2.101c-1.237 0.494-3.263 1.305-4.5 1.801-11.131 4.464-35.363 16.555-50 24.948-2.062 1.182-5.347 3.055-7.298 4.16-1.952 1.106-8.288 5.19-14.081 9.076-5.792 3.887-11.158 6.826-11.924 6.532-1.08-0.415-1.454-3.729-1.669-14.826l-0.278-14.292-5.5 9.752v822.87 822.87l6144.5-0.5 3e-3 -824c2e-3 -453.2-0.112-753.46-0.253-667.25s-0.592 156.74-1.003 156.74c-1.591-0.033-3.225-1.761-8.971-9.485-34.663-46.599-86.571-89.469-138.28-114.2-9.789-4.682-19.989-9.302-20.536-9.302-0.267 0-2.618-0.945-5.225-2.1-7.995-3.542-8.497-3.736-16.739-6.468-10.392-3.445-20.112-6.404-24.5-7.458-1.925-0.463-5.3-1.32-7.5-1.905-8.007-2.129-18.889-4.085-39.25-7.053-31.454-4.586-74.405-2.987-105.75 3.938-2.2 0.486-6.7 1.431-10 2.1s-9.825 2.332-14.5 3.695c-4.675 1.364-9.743 2.705-11.262 2.98-1.519 0.276-3.009 0.9-3.309 1.386-0.301 0.487-1.427 0.885-2.502 0.885s-2.736 0.414-3.691 0.92-4.436 1.9-7.736 3.098c-7.309 2.652-8.711 3.212-14.739 5.882-2.607 1.155-4.949 2.1-5.205 2.1-1.111 0-14.744 6.833-22.385 11.219-4.581 2.63-8.472 4.781-8.648 4.781-0.698 0-14.607 8.699-24.523 15.338-20.508 13.729-34.666 25.281-51.034 41.636-25.626 25.606-43.991 49.434-63.726 82.683-5.34 8.997-18.24 34.227-18.24 35.674 0 0.335-1.19 3.211-2.645 6.389-2.876 6.286-7.165 17.749-10.767 28.78-2.153 6.594-2.979 9.446-5.718 19.75-3.08 11.592-6.447 14.75-15.721 14.75h-6.043l-10.803-10.334c-30.898-29.555-51.814-44.591-87.803-63.118-44.764-23.045-81.571-34.066-140.5-42.069-15.972-2.17-66.506-3.114-84-1.57-77.872 6.873-145.53 28.039-209.5 65.536-26.895 15.766-56.421 37.994-78.044 58.753-35.475 34.057-65.822 72.887-86.946 111.25-1.228 2.231-3.637 6.603-5.352 9.717-5.77 10.473-13.929 27.249-18.645 38.339-0.702 1.65-1.966 4.575-2.81 6.5-1.679 3.829-5.755 14.368-8.897 23-1.1 3.025-2.377 6.4-2.837 7.5s-1.379 3.8-2.041 6c-0.663 2.2-1.539 4.9-1.947 6-0.409 1.1-1.751 5.375-2.983 9.5s-2.59 8.625-3.018 10c-0.696 2.234-3.622 13.478-5.985 23-3.703 14.918-6.852 31.103-9.923 51-1.848 11.972-4.613 37.297-5.787 53-1.264 16.91-0.92 80.811 0.533 99 2.191 27.418 2.86 33.802 5.289 50.5 3.061 21.043 8.718 50.979 12.991 68.75 3.745 15.575 4.798 19.577 8.882 33.75 1.189 4.125 2.413 8.546 2.721 9.824 0.746 3.092 14.246 42.551 18.023 52.676 2.82 7.56 6.622 16.608 11.792 28.062 2.157 4.779 2.961 9.105 2.629 14.155-0.08 1.219-1.735 3.806-3.678 5.75-3.189 3.188-4.071 3.533-9.037 3.533-5.37 0-5.643-0.14-11.226-5.75-3.148-3.162-7.578-8-9.846-10.75-5.48-6.647-15.856-17.162-21.215-21.5-2.378-1.925-5.295-4.339-6.483-5.363-1.188-1.025-3.735-3.05-5.659-4.5-1.925-1.451-4.372-3.424-5.439-4.387-1.066-0.963-2.323-1.75-2.792-1.75-0.47 0-1.82-0.9-3-2-1.181-1.1-2.737-2-3.459-2-0.721 0-1.311-0.45-1.311-1s-0.675-1-1.5-1-1.5-0.45-1.5-1-0.675-1-1.5-1-1.5-0.34-1.5-0.756-1.462-1.392-3.25-2.17c-1.788-0.777-3.475-1.686-3.75-2.018-0.525-0.635-15.311-7.891-23-11.287-2.475-1.093-5.281-2.389-6.236-2.878-0.955-0.49-2.616-0.891-3.691-0.891s-2.233-0.45-2.573-1-1.69-1-3-1-2.66-0.45-3-1-1.498-1-2.573-1-2.736-0.395-3.691-0.877c-3.112-1.573-8.82-3.123-11.498-3.123-1.441 0-2.898-0.45-3.238-1s-2.301-1-4.359-1-4.169-0.409-4.691-0.908c-0.523-0.499-3.2-1.154-5.95-1.455s-9.05-1.117-14-1.814c-18.803-2.645-66.524-1.415-84.5 2.179-3.025 0.605-7.19 1.349-9.256 1.654-2.066 0.306-4.005 0.958-4.309 1.45s-1.507 0.894-2.673 0.894c-2.252 0-8.109 1.663-10.998 3.123-0.955 0.482-2.841 0.877-4.191 0.877s-2.733 0.45-3.073 1-1.69 1-3 1-2.66 0.45-3 1-1.498 1-2.573 1-2.736 0.397-3.691 0.883-2.861 1.322-4.236 1.858-4.455 1.939-6.845 3.117c-2.389 1.178-4.976 2.142-5.75 2.142-0.773 0-1.405 0.45-1.405 1s-0.863 1-1.917 1-2.066 0.354-2.25 0.787c-0.183 0.432-2.808 2.017-5.833 3.522-3.025 1.504-7.75 4.095-10.5 5.757s-5.788 3.28-6.75 3.595-1.75 0.97-1.75 1.456c0 0.485-0.637 0.883-1.417 0.883-0.779 0-1.566 0.373-1.75 0.83-0.183 0.456-2.621 2.369-5.417 4.25-2.797 1.881-7.072 4.991-9.5 6.912-7.845 6.203-34.282 33.317-38.916 39.912-6.513 9.269-9.738 12.819-13.224 14.558-3.445 1.719-10.776 2.085-10.776 0.538 0-0.55-0.562-1.01-1.25-1.023-1.204-0.023-4.105-2.415-13.75-11.336-2.475-2.29-6.975-6.177-10-8.638-3.025-2.462-5.725-4.721-6-5.02-0.275-0.3-3.425-2.693-7-5.32-3.575-2.626-7.293-5.424-8.261-6.219-0.969-0.794-2.169-1.444-2.667-1.444s-1.055-0.369-1.239-0.819c-0.472-1.163-12.507-9.181-13.778-9.181-0.58 0-1.055-0.398-1.055-0.883 0-0.486-0.788-1.133-1.75-1.439-1.713-0.543-7.261-3.689-8.25-4.678-1.126-1.126-26.963-14.238-32-16.24-1.375-0.546-3.281-1.391-4.236-1.877s-2.418-0.883-3.25-0.883c-0.833 0-1.514-0.45-1.514-1s-0.681-1-1.514-1c-0.832 0-2.295-0.397-3.25-0.883-1.788-0.91-5.851-2.643-10.236-4.367-1.375-0.541-3.281-1.381-4.236-1.867s-2.841-0.883-4.191-0.883-2.733-0.45-3.073-1-1.69-1-3-1-2.66-0.45-3-1-1.915-1-3.5-1-3.16-0.45-3.5-1-1.915-1-3.5-1-3.16-0.45-3.5-1-2.14-1-4-1-3.66-0.45-4-1-2.14-1-4-1-3.66-0.45-4-1-2.301-1-4.359-1-4.169-0.412-4.691-0.916c-0.523-0.503-3.65-1.157-6.95-1.453-3.3-0.295-9.15-1.023-13-1.616-10.828-1.669-36.805-3.453-49-3.366-17.558 0.126-46.461 2.715-59.5 5.331-3.025 0.607-7.075 1.337-9 1.624-1.925 0.286-4.4 0.911-5.5 1.39-1.1 0.478-3.35 1.098-5 1.376-1.65 0.279-5.025 1.017-7.5 1.641-2.475 0.623-5.963 1.375-7.75 1.671-1.788 0.295-3.25 0.938-3.25 1.427 0 0.49-1.323 0.891-2.941 0.891s-3.219 0.45-3.559 1-1.498 1-2.573 1-2.736 0.397-3.691 0.883-3.086 1.439-4.736 2.117-3.781 1.631-4.736 2.117-2.424 0.883-3.264 0.883-2.309 0.409-3.264 0.91c-0.955 0.5-9.611 4.8-19.236 9.555-20.795 10.274-27.384 13.774-27.833 14.785-0.184 0.412-0.778 0.75-1.32 0.75-0.543 0-2.949 1.35-5.347 3s-4.842 3-5.43 3c-0.589 0-1.07 0.45-1.07 1s-0.675 1-1.5 1-1.5 0.45-1.5 1-0.637 1-1.417 1c-0.779 0-1.566 0.364-1.75 0.808-0.183 0.445-2.583 2.328-5.333 4.184-2.75 1.857-5.225 3.632-5.5 3.945-0.275 0.312-3.2 2.591-6.5 5.063-21.677 16.241-48.999 46.663-62.864 70-5.597 9.42-12.689 23.114-15.019 29-0.98 2.475-2.395 5.85-3.145 7.5-2.25 4.946-8.199 23.509-9.936 31-3.373 14.543-3.688 16.157-6.729 34.5-1.684 10.157-1.689 60.425-8e-3 73 0.699 5.225 2.18 15.125 3.291 22 1.854 11.474 1.893 12.803 0.477 16.19-1.686 4.03-6.564 8.279-10.683 9.307-3.926 0.979-10.418-1.137-12.301-4.01-0.899-1.373-1.912-3.882-2.251-5.577s-1.146-3.285-1.794-3.534c-1.843-0.707-16.753 4.91-23.099 8.701-16.757 10.012-29.256 29.063-31.158 47.493l-0.533 5.161 4.876 3.352c10.841 7.454 14.376 12.182 14.376 19.228 0 5.144-2.723 10.623-6.515 13.107-4.409 2.889-7.888 1.981-18.243-4.757-16.29-10.6-20.513-13.151-26.242-15.853-6.973-3.288-15.903-7.124-20.5-8.808-1.1-0.403-3.125-1.184-4.5-1.735-6.361-2.551-20.978-6.639-29.5-8.25-13.273-2.51-16.484-2.979-28.257-4.124-12.015-1.169-21.345-0.915-41.243 1.121-18.206 1.864-38.755 6.339-50.5 10.999-1.1 0.437-4.7 1.789-8 3.005-11.797 4.348-21.568 8.912-30.352 14.177-3.494 2.094-6.563 3.807-6.82 3.807-0.776 0-9.262 5.889-19.317 13.406-22.993 17.189-44.335 41.733-57.469 66.094-4.588 8.509-6.974 11.226-11.542 13.144-5.038 2.115-11.212 0.255-14.811-4.462l-2.689-3.524-0.681-29.579c-0.375-16.269-0.97-32.054-1.324-35.079-0.353-3.025-1.036-9.325-1.516-14-1.925-18.746-5.052-36.878-10.001-58-0.712-3.042-3.267-12.728-5.935-22.5-2.462-9.02-11.764-35.302-15.573-44-0.723-1.65-2.209-5.277-3.303-8.06-6.141-15.629-22.007-44.807-34.494-63.44-18.829-28.094-48.584-60.99-69.65-77-1.809-1.375-4.092-3.175-5.072-4-4.24-3.568-5.646-4.665-8.951-6.987-1.925-1.352-4.372-3.258-5.439-4.236-1.066-0.977-2.528-1.777-3.25-1.777-0.721 0-1.311-0.45-1.311-1s-0.475-1-1.055-1-3.645-1.759-6.811-3.909-7.754-5.058-10.195-6.463c-4.755-2.736-29.953-15.254-33.689-16.736-1.238-0.49-3.262-1.282-4.5-1.758-6.472-2.492-12.719-5.097-14.986-6.251-0.955-0.486-2.616-0.883-3.691-0.883s-2.233-0.45-2.573-1-1.69-1-3-1-2.66-0.45-3-1-1.915-1-3.5-1-3.16-0.45-3.5-1-2.14-1-4-1-3.631-0.402-3.935-0.894-2.243-1.138-4.309-1.436c-2.066-0.297-6.006-1.04-8.756-1.651-15.842-3.519-24.05-4.745-41.5-6.199-22.533-1.878-47.836-1.11-70.5 2.14-3.85 0.552-9.25 1.261-12 1.574-2.75 0.314-5.9 0.966-7 1.45s-3.575 1.157-5.5 1.495c-1.925 0.339-4.967 0.869-6.759 1.179-1.793 0.31-3.507 0.963-3.809 1.452-0.303 0.49-1.88 0.89-3.505 0.89s-3.736 0.406-4.691 0.903c-0.955 0.496-3.761 1.44-6.236 2.097s-5.281 1.601-6.236 2.097c-0.955 0.497-2.424 0.903-3.264 0.903s-2.421 0.45-3.514 1c-1.092 0.55-2.88 1.45-3.972 2-1.093 0.55-2.625 1-3.406 1-0.78 0-3.149 0.856-5.263 1.901-2.115 1.046-9.02 4.436-15.345 7.535-6.325 3.098-13.75 6.978-16.5 8.621-2.75 1.644-5.675 3.282-6.5 3.64-1.824 0.792-16.299 10.389-17 11.271-0.275 0.345-2.075 1.725-4 3.066-4.418 3.077-7.156 5.317-17.455 14.282-6.79 5.911-12.053 11.106-18.595 18.357-2.503 2.774-5.511 5.557-6.685 6.185-3.351 1.793-9.838 1.346-13.985-0.965-5.607-3.124-6.42-3.968-8.566-8.893-1.078-2.475-2.782-6.336-3.785-8.581-1.004-2.244-2.768-6.474-3.921-9.4-6.168-15.648-23.163-49.686-32.916-65.924-34.199-56.943-74.097-95.978-120.82-118.2-14.962-7.117-18.17-8.574-21.777-9.886-5.579-2.03-9.396-3.005-11.762-3.005-1.441 0-2.898-0.45-3.238-1s-2.301-1-4.359-1-4.168-0.409-4.691-0.908c-1.65-1.577-11.189-2.27-37.45-2.722-15.611-0.269-26.276-0.058-27.5 0.543-1.1 0.541-4.025 1.217-6.5 1.503-9.817 1.135-13.541 1.828-14.45 2.686-0.523 0.494-2.183 0.898-3.691 0.898s-3.019 0.45-3.359 1-1.723 1-3.073 1-3.236 0.397-4.191 0.883-2.861 1.326-4.236 1.867c-6.041 2.374-8.104 3.308-18.5 8.37-6.05 2.945-11.15 5.698-11.333 6.118-0.184 0.419-0.971 0.762-1.75 0.762s-1.417 0.34-1.417 0.756-1.238 1.309-2.75 1.985c-1.512 0.677-3.927 2.249-5.367 3.494-1.439 1.246-4.104 3.39-5.922 4.765-14.933 11.295-30.825 30.941-39.995 49.444-7.029 14.183-7.401 14.711-12.28 17.452-6.126 3.441-13.523 2.383-17.798-2.544-0.884-1.018-4.439-7.252-7.9-13.852-3.462-6.6-7.125-13.194-8.141-14.654s-1.847-2.863-1.847-3.118c0-2.745-32.911-52.995-46.051-70.313-7.847-10.341-23.706-30.338-24.915-31.415-0.309-0.275-3.905-4.325-7.992-9-12.403-14.19-47.577-48.743-64.459-63.323-14.3-12.349-33.53-27.399-46.98-36.767-2.693-1.875-8.318-5.798-12.5-8.717-4.181-2.918-10.078-6.795-13.103-8.615s-8.597-5.211-12.383-7.536c-3.786-2.324-8.398-5.084-10.25-6.134-1.852-1.049-5.054-2.861-7.117-4.025-2.062-1.164-4.875-2.89-6.25-3.834-2.461-1.69-45.222-22.961-54-26.862-2.475-1.1-9.9-4.108-16.5-6.684s-12.9-5.05-14-5.496c-5.949-2.415-26.05-9.548-33-11.71-2.75-0.855-7.475-2.38-10.5-3.388-8.507-2.834-44.753-12.18-57.5-14.826-3.3-0.685-7.8-1.619-10-2.075s-7.15-1.337-11-1.956c-3.85-0.62-9.475-1.533-12.5-2.028-62.913-10.304-137.08-10.682-200.5-1.02-3.85 0.587-9.25 1.317-12 1.623-2.75 0.307-5.428 0.966-5.95 1.465-0.523 0.499-2.858 0.908-5.191 0.908s-4.519 0.45-4.859 1-2.526 1-4.859 1-4.668 0.404-5.191 0.898c-0.522 0.493-2.75 1.151-4.95 1.461-8.473 1.195-11.538 1.894-12.068 2.751-0.303 0.49-2.072 0.89-3.932 0.89s-3.66 0.45-4 1-2.14 1-4 1-3.66 0.45-4 1-1.915 1-3.5 1-3.16 0.45-3.5 1-2.14 1-4 1-3.66 0.45-4 1-1.69 1-3 1-2.66 0.45-3 1-1.941 1-3.559 1-2.941 0.45-2.941 1-1.323 1-2.941 1-3.219 0.45-3.559 1-1.716 1-3.059 1-2.441 0.45-2.441 1-1.098 1-2.441 1-2.719 0.45-3.059 1-1.498 1-2.573 1c-1.888 0-2.861 0.361-7.663 2.844-1.23 0.636-3.143 1.156-4.25 1.156-1.108 0-2.014 0.45-2.014 1s-0.906 1-2.014 1c-1.107 0-2.795 0.397-3.75 0.883-1.963 0.999-8.407 3.657-14.486 5.975-1.237 0.472-4.205 1.822-6.595 3-2.389 1.178-4.976 2.142-5.75 2.142-0.773 0-1.405 0.45-1.405 1s-0.632 1-1.405 1c-0.774 0-3.136 0.85-5.25 1.889-15.027 7.382-20.998 10.126-22.012 10.119-0.641-4e-3 -1.316 0.33-1.5 0.742-0.183 0.412-3.933 2.596-8.333 4.852-11.165 5.725-16.915 8.813-17.5 9.398-0.275 0.275-1.513 1.063-2.75 1.75-1.237 0.688-3.263 1.813-4.5 2.5-1.237 0.688-2.475 1.475-2.75 1.75-0.989 0.989-6.537 4.135-8.25 4.678-0.963 0.306-1.75 0.953-1.75 1.439 0 0.485-0.465 0.883-1.033 0.883-0.569 0-5.729 3.15-11.467 7s-10.898 7-11.467 7c-0.568 0-1.033 0.45-1.033 1s-0.675 1-1.5 1-1.5 0.45-1.5 1-0.675 1-1.5 1-1.5 0.344-1.5 0.764-1.8 1.876-4 3.236-4 2.816-4 3.236-0.675 0.764-1.5 0.764-1.5 0.353-1.5 0.784c0 0.432-1.334 1.573-2.964 2.535-1.63 0.963-3.542 2.313-4.25 2.999-0.707 0.686-2.861 2.343-4.786 3.682s-3.991 2.899-4.592 3.467c-0.6 0.568-2.573 2.158-4.383 3.533s-4.095 3.175-5.077 4c-0.983 0.825-3.678 3.075-5.99 5-2.311 1.925-5.16 4.41-6.33 5.522-5.514 5.239-8.817 6.798-14.508 6.849-4.356 0.039-6.453-0.503-9.324-2.41-4.387-2.916-8.228-9.201-7.447-12.189 0.406-1.551-0.48-3.07-3.388-5.808-3.888-3.662-21.112-13.101-25.961-14.227-1.375-0.32-5.2-1.275-8.5-2.123-4.607-1.185-11.841-1.551-31.162-1.578l-25.162-0.036-0.656 3.879c-0.396 2.344-1.862 5.114-3.706 7-2.737 2.799-3.661 3.121-8.968 3.121-6.813 0-9.775-1.531-12.973-6.705-1.957-3.168-2.286-5.92-3.478-29.146-1.342-26.161-2.302-36.465-4.932-52.954-2.388-14.974-8.208-39.995-11.442-49.195-0.483-1.375-2.298-6.55-4.034-11.5-1.735-4.95-3.745-10.35-4.465-12-8.01-18.337-10.111-22.531-17.03-34-10.476-17.365-17.565-26.526-30.968-40.019-7.163-7.211-14.382-14.207-16.041-15.546-7.124-5.749-14.26-10.889-17.983-12.952-2.2-1.22-5.125-3.01-6.5-3.979-3.693-2.603-27.403-14.004-29.122-14.004-0.813 0-1.905-0.398-2.428-0.884-0.522-0.485-3.875-1.857-7.45-3.047s-7.281-2.592-8.236-3.116-2.616-0.953-3.691-0.953-2.233-0.45-2.573-1-1.69-1-3-1-2.629-0.4-2.932-0.89c-0.302-0.489-2.016-1.131-3.809-1.427-1.792-0.296-5.284-1.022-7.759-1.613-14.88-3.554-23.961-4.859-43.5-6.25-19.508-1.388-24.637-1.372-40 0.126-6.6 0.644-14.787 1.406-18.193 1.695l-6.194 0.525-4.447-4.448c-6.387-6.386-6.531-8.309-1.723-22.888 10.058-30.493 16.718-60.458 20.966-94.33 4.41-35.168 5.78-67.139 4.203-98.07-3.105-60.896-11.465-104.37-28.349-147.43-22.918-58.446-58.953-99.396-104.26-118.48-2.2-0.927-4.781-2.097-5.736-2.601s-2.424-0.916-3.264-0.916-2.309-0.406-3.264-0.903c-2.301-1.196-13.531-4.168-22.736-6.018-20.544-4.129-52.319-3.766-78 0.89-11.948 2.166-16.034 2.324-19.086 0.736-6.037-3.139-7.403-5.692-11.351-21.205-5.653-22.217-20.312-51.688-36.171-72.72-6.423-8.518-24.02-26.707-31.759-32.826-2.403-1.9-4.878-3.932-5.5-4.517-1.619-1.518-18.823-13.016-22.917-15.316-1.893-1.063-4.516-2.538-5.829-3.277s-2.612-1.578-2.887-1.864c-0.573-0.596-11.67-5.983-17.25-8.373-9.02-3.865-11.383-4.864-13.5-5.709-1.238-0.494-3.262-1.325-4.5-1.847-1.238-0.521-5.4-1.923-9.25-3.115s-7.781-2.565-8.736-3.051c-0.955-0.487-2.616-0.885-3.691-0.885s-2.202-0.4-2.505-0.89c-0.302-0.489-2.016-1.139-3.809-1.444-1.792-0.305-5.396-1.03-8.009-1.61-2.613-0.581-6.775-1.506-9.25-2.056-20.027-4.45-31.301-6.032-57.5-8.068-14.37-1.117-44.778-2.003-47-1.37m-296.5 891.94c0 453.2 0.113 638.45 0.252 411.67 0.139-226.78 0.139-597.58 0-824-0.139-226.42-0.252-40.868-0.252 412.33m5620.1 182.2c-0.437 0.437-4.02 1.117-7.962 1.51-11.461 1.144-16.101 1.927-17.118 2.887-0.522 0.494-2.408 0.898-4.191 0.898s-3.519 0.45-3.859 1-1.915 1-3.5 1-3.16 0.45-3.5 1-1.915 1-3.5 1-3.16 0.45-3.5 1-1.498 1-2.573 1-2.848 0.45-3.941 1c-1.092 0.55-2.88 1.45-3.972 2-1.093 0.55-2.866 1-3.941 1s-2.233 0.45-2.573 1-1.491 1-2.559 1-1.941 0.45-1.941 1-0.681 1-1.514 1c-0.832 0-2.295 0.41-3.25 0.911s-6.011 2.991-11.236 5.532c-5.225 2.542-11.432 5.736-13.793 7.098-4.777 2.756-28.422 18.442-29.207 19.376-0.275 0.327-2.3 1.903-4.5 3.502-7.814 5.68-34.138 33.144-41.773 43.581-4.225 5.775-8.167 11.07-8.76 11.768-5.775 6.786-20.072 34.316-26.865 51.732-2.359 6.05-4.652 11.9-5.095 13-2.447 6.078-7.403 23.398-9.944 34.75-7.325 32.726-9.502 55.822-8.746 92.75 0.705 34.393 2.999 58.662 7.705 81.5 0.567 2.75 1.306 7.188 1.642 9.861 0.558 4.434 0.446 4.813-1.276 4.31-41.526-12.134-91.804-9.559-133.39 6.831-29.679 11.699-53.618 27.369-76.27 49.926-23.285 23.187-39.68 50.064-49.689 81.455l-3.31 10.383 2.061 4.242c1.511 3.111 3.231 4.809 6.45 6.367 5.434 2.631 8.349 2.672 12.444 0.175 3.907-2.383 4.648-3.732 8.422-15.341 1.646-5.065 3.698-10.784 4.559-12.709 10.581-23.641 21.281-39.693 37.181-55.777 11.405-11.538 16.844-15.987 31.652-25.894 11.507-7.699 32.118-18.329 35.539-18.329 0.543 0 1.77-0.397 2.725-0.883 2.88-1.466 6.591-2.912 9.236-3.601 1.375-0.358 4.075-1.105 6-1.659 3.828-1.102 9.752-2.424 17.5-3.904 15.515-2.964 45.684-3.405 59.5-0.87 17.478 3.207 21.716 4.307 30.25 7.851 13.362 5.549 21.719 6.414 27.216 2.816 5.828-3.815 6.843-8.775 3.978-19.451-0.856-3.19-1.924-7.824-2.375-10.299-0.45-2.475-1.552-8.1-2.448-12.5-7.43-36.475-10.597-76.938-8.693-111.03 0.645-11.533 1.571-23.443 2.06-26.468 0.488-3.025 1.383-8.875 1.989-13 1.054-7.17 1.431-9.093 4.016-20.5 1.993-8.794 2.812-11.729 7.115-25.5 2.32-7.425 4.595-13.928 5.055-14.45s0.837-1.524 0.837-2.225c0-6.38 26.876-54.235 35.002-62.325 0.276-0.275 3.073-3.681 6.215-7.568 7.462-9.233 21.829-23.014 32.769-31.432 10.586-8.145 14.652-10.98 15.764-10.989 0.688-6e-3 1.25-0.461 1.25-1.011s0.675-1 1.5-1 1.5-0.45 1.5-1 0.637-1 1.417-1c0.779 0 1.566-0.338 1.75-0.75 0.46-1.036 17.871-10.177 23.583-12.382 1.238-0.477 3.375-1.318 4.75-1.868l5-2c6.118-2.447 8.112-3.29 9.736-4.117 0.955-0.486 2.616-0.883 3.691-0.883s2.202-0.4 2.505-0.89c0.302-0.489 2.016-1.142 3.809-1.452 1.792-0.31 4.834-0.84 6.759-1.179 1.925-0.338 4.4-1.009 5.5-1.49 1.1-0.482 4.025-1.134 6.5-1.45 2.475-0.315 7.65-1.091 11.5-1.724 7.709-1.267 46.504-1.548 56-0.406 3.3 0.397 6.9 1.115 8 1.595 1.1 0.479 3.8 1.138 6 1.463 8.132 1.202 10.532 1.775 11.068 2.643 0.303 0.49 1.847 0.89 3.432 0.89s3.16 0.45 3.5 1 1.498 1 2.573 1 2.736 0.397 3.691 0.883 3.086 1.439 4.736 2.117 3.781 1.631 4.736 2.117 2.418 0.883 3.25 0.883c0.833 0 1.514 0.45 1.514 1s0.9 1 2 1 2 0.344 2 0.764 1.688 1.532 3.75 2.47c3.773 1.716 9.321 4.837 10.25 5.766 0.275 0.275 1.574 1.105 2.887 1.844s3.914 2.202 5.78 3.25c1.989 1.117 5.324 1.906 8.055 1.906 4.166 0 5.066-0.434 8.47-4.084 3.245-3.48 3.808-4.751 3.808-8.596 0-2.481-0.71-5.706-1.578-7.166-2.82-4.745-29.043-20.342-44.172-26.272-1.238-0.485-3.262-1.287-4.5-1.781-1.238-0.495-3.825-1.44-5.75-2.101s-4.4-1.573-5.5-2.026-3.35-1.104-5-1.446c-1.65-0.343-4.125-0.861-5.5-1.151s-3.4-0.916-4.5-1.39c-1.1-0.475-3.8-1.128-6-1.452s-6.475-1.08-9.5-1.68c-6.541-1.298-57.225-2.297-58.37-1.15m-4111.1 360.39c-7.7 0.444-17.825 1.328-22.5 1.965-13.591 1.851-33.198 5.003-37 5.949-1.925 0.479-5.75 1.402-8.5 2.052-41.202 9.732-90.524 30.753-128.89 54.937-34.767 21.913-70.508 53.441-98.059 86.5-15.252 18.301-23.058 29.593-40.072 57.967-5.408 9.019-11.161 17.197-14.475 20.577-8.521 8.691-34.227 25.001-44.314 28.116-12.269 3.79-15.395 3.992-42.186 2.732-25.868-1.216-47.398-0.533-66.5 2.113-3.575 0.495-10.55 1.394-15.5 1.998-9.608 1.172-17.525 2.491-24 3.999-21.238 4.944-34.5 8.466-34.5 9.16 0 0.461 49.862 0.838 110.8 0.838h110.81l6.506-5.366c8.658-7.142 17.106-17.832 25.931-32.813 23.893-40.558 39.755-63.416 59.48-85.714 13.68-15.464 21.265-23.215 31.472-32.159 4.675-4.096 8.725-7.676 9-7.954s2.075-1.689 4-3.136 4.475-3.47 5.666-4.495c1.191-1.024 3.092-2.636 4.224-3.581 2.876-2.401 34.935-23.782 35.658-23.782 0.325 0 2.473-1.265 4.772-2.812 3.837-2.581 28.434-14.963 36.68-18.465 6.812-2.892 10.555-4.515 15.239-6.607 2.607-1.164 5.329-2.116 6.05-2.116s1.738-0.369 2.261-0.82c0.522-0.451 4.325-1.854 8.45-3.119s8.4-2.662 9.5-3.105 3.125-1.033 4.5-1.311 4.3-1.017 6.5-1.642c7.827-2.223 15.286-3.924 26.5-6.042 3.025-0.572 7.75-1.48 10.5-2.019 19.014-3.726 47.928-5.227 76.5-3.97 12.925 0.568 26.65 1.459 30.5 1.978 16.281 2.198 30.851 4.9 43.5 8.068 2.475 0.619 5.967 1.369 7.759 1.665 1.793 0.296 3.507 0.938 3.809 1.427 0.303 0.49 1.655 0.89 3.005 0.89s3.236 0.406 4.191 0.903c0.955 0.496 3.761 1.477 6.236 2.18 2.475 0.702 4.95 1.552 5.5 1.889 0.55 0.336 2.8 1.184 5 1.886 2.2 0.701 4.9 1.653 6 2.116s5.15 2.046 9 3.518c16.841 6.438 48.532 22.444 58.654 29.625 1.46 1.036 2.947 1.883 3.305 1.883 0.726 0 11.139 6.928 16.541 11.006 1.925 1.453 6.2 4.632 9.5 7.065s6.225 4.651 6.5 4.929 2.975 2.4 6 4.717 6.667 5.24 8.094 6.497c32.124 28.31 58.504 59.903 79.68 95.424 7.064 11.85 19.338 36.633 25.809 52.112l4.702 11.25h13.858c10.623 0 13.857-0.3 13.857-1.286 0-4.34-19.595-48.888-27.586-62.714-1.748-3.025-4.024-7.075-5.057-9-14.687-27.36-39.21-59.078-67.264-87-33.505-33.346-71.451-60.441-110.79-79.107-42.579-20.205-85.446-32.824-126.81-37.329-13.63-1.484-47.337-3.71-51.784-3.419-1.219 0.08-8.516 0.508-16.216 0.952" fill="#fefbec" fill-rule="evenodd"/>
<path id="path2" d="m264.5 1162.2c-4.4 0.477-12.5 1.343-18 1.924s-12.7 1.45-16 1.931-9.6 1.381-14 2c-4.4 0.618-9.8 1.508-12 1.978-2.2 0.469-6.7 1.377-10 2.016-9.264 1.795-21.254 4.426-28 6.146-2.2 0.56-5.687 1.432-7.75 1.937-9.005 2.203-14.266 3.752-34.25 10.086-4.95 1.569-10.575 3.328-12.5 3.908s-4.4 1.435-5.5 1.898c-1.1 0.464-7.4 2.948-14 5.52-16.624 6.477-23.056 9.331-42 18.633-11.012 5.408-17.723 8.967-27.75 14.72-2.062 1.184-5.263 3.01-7.113 4.058-8.332 4.722-7.637 3.009-7.637 18.835 0 7.842 0.385 14.259 0.856 14.259s2.882-1.547 5.358-3.437c2.476-1.891 6.028-4.31 7.894-5.376 1.865-1.066 6.317-3.72 9.892-5.897 18.838-11.472 46.41-25.253 63.981-31.978 3.585-1.373 7.419-2.859 8.519-3.303s3.575-1.348 5.5-2.009 4.4-1.565 5.5-2.008c7.677-3.094 26.153-9.315 35.5-11.954 2.475-0.698 5.625-1.635 7-2.081 2.483-0.806 24.844-6.258 32.5-7.924 6.161-1.341 24.056-4.683 29.5-5.51 6.395-0.971 17.417-2.578 24-3.5 38.592-5.405 104.49-4.506 140.5 1.916 12.151 2.167 27.034 5.495 35.5 7.938 1.925 0.556 5.075 1.44 7 1.965 16.392 4.473 45.22 16.654 60.817 25.699 7.094 4.114 25.323 16.48 30.683 20.814 9.427 7.623 28.164 27.147 35.167 36.645 10.591 14.365 21.678 34.017 27.362 48.5 2.842 7.242 4.534 12.368 8.05 24.402 5.144 17.6 6.06 18.614 16.756 18.554 4.278-0.024 10.228-0.555 13.222-1.179 16.705-3.484 50.456-4.626 66.83-2.262 55.241 7.974 99.114 37.775 128.8 87.485 33.475 56.059 51.376 132.67 51.289 219.5-0.019 19.45-3.119 64.305-5.355 77.5-0.28 1.65-1.013 6.6-1.629 11s-1.511 9.8-1.988 12c-0.478 2.2-1.393 6.925-2.035 10.5s-1.52 7.85-1.952 9.5-1.344 5.7-2.027 9c-1.139 5.499-3.255 13.74-6.163 24-0.623 2.2-2.639 8.619-4.479 14.265s-3.346 11.349-3.346 12.673c0 5.363 8.818 11.578 14.429 10.169 1.277-0.32 9.241-1.236 17.697-2.034 33.956-3.206 71.592 1.269 104.31 12.402 34.544 11.754 52.912 21.337 75.061 39.159 14.072 11.324 36.429 36.65 43.414 49.18 1.169 2.097 2.87 4.95 3.781 6.34 9.029 13.78 23.534 47.473 28.348 65.846 0.432 1.65 1.492 5.579 2.354 8.73 2.247 8.207 7.189 33.708 8.58 44.27 0.652 4.95 1.571 11.925 2.042 15.5s1.407 16.85 2.081 29.5c0.802 15.072 1.692 23.942 2.58 25.733 1.956 3.944 6.705 6.097 12.105 5.488 6.038-0.681 9.243-3.997 10.295-10.652 1.372-8.679-0.899-49.627-3.998-72.069-0.931-6.743-1.489-10.171-3.58-22-1.104-6.241-4.316-20.311-5.48-24-0.433-1.375-1.356-4.525-2.051-7-2.151-7.667-8.927-27.734-11.055-32.739-1.113-2.619-2.783-6.561-3.71-8.761-9.659-22.907-28.753-52.738-44.166-69-30.481-32.162-61.439-51.27-106.6-65.793-32.009-10.295-64.568-15.104-98.943-14.613-13.293 0.19-15.967-0.01-15.803-1.183 0.186-1.336 1.114-4.811 3.246-12.161 5.119-17.652 8.413-30.023 10.183-38.25 0.592-2.75 1.481-6.8 1.977-9s1.371-6.475 1.944-9.5c0.572-3.025 1.476-7.75 2.007-10.5 1.857-9.62 3.996-25.33 7.078-52 1.697-14.685 1.705-77.329 0.012-91.5-3.068-25.664-4.385-34.977-6.152-43.5-0.456-2.2-1.383-6.7-2.06-10s-1.882-8.475-2.678-11.5-1.808-7.075-2.248-9c-2.144-9.363-9.799-31.638-15.122-44-4.37-10.146-14.671-30.686-18.797-37.477-2.248-3.7-4.087-6.926-4.087-7.168 0-0.43-1.734-2.841-13.212-18.377-5.923-8.017-26.636-29.657-33.288-34.777-2.2-1.694-6.475-5.048-9.5-7.454-11.547-9.183-18.012-13.077-38.5-23.189-16.999-8.389-28.199-12.362-52-18.445-18.478-4.722-51.131-6.202-78.247-3.547-4.757 0.465-6.349 0.292-6.67-0.727-0.233-0.737-1.379-4.489-2.547-8.339-16.193-53.382-53.397-100.72-102.48-130.41-6.913-4.18-28.424-15.099-36.053-18.299-2.2-0.922-6.142-2.588-8.761-3.701-11.002-4.677-33.253-11.501-48.989-15.023-10.673-2.389-13.538-2.98-19.75-4.078-3.575-0.632-8.525-1.543-11-2.026-4.245-0.828-8.726-1.401-30.613-3.913-10.72-1.23-76.297-1.152-87.887 0.105m5551.5 215.88c-4.125 0.497-12 1.411-17.5 2.031s-15.85 2.258-23 3.64c-7.15 1.381-15.025 2.901-17.5 3.377s-6.075 1.302-8 1.835c-1.925 0.534-5.075 1.395-7 1.915-6.947 1.874-27.721 9.059-38 13.142-26.511 10.531-60.695 29.352-80 44.046-1.925 1.465-6.96 5.214-11.188 8.331-4.228 3.118-8.289 6.226-9.024 6.908-0.735 0.683-5.151 4.576-9.812 8.653-9.758 8.533-29.129 27.96-36.545 36.649-22.7 26.598-33.148 40.991-46.414 63.939-0.954 1.65-2.921 5.025-4.371 7.5-3.896 6.649-15.007 28.815-17.043 34-0.972 2.475-2.451 6.075-3.287 8-3.28 7.554-8.741 21.976-10.884 28.75-0.914 2.888-2.173 5.246-2.797 5.241-0.624-4e-3 -2.71-1.468-4.635-3.253-10.893-10.097-28.743-23.835-44.133-33.965-30.653-20.177-61.474-35.291-94.499-46.34-11.378-3.807-13.216-4.328-41.368-11.72-6.737-1.769-22.767-4.762-35.5-6.628-13.077-1.916-14.993-2.115-34.5-3.586-22.673-1.71-51.014-1.928-64.83-0.499-37.296 3.859-46.197 5.115-71.67 10.12-8.307 1.632-21.63 4.705-26 5.997-1.65 0.488-7.95 2.272-14 3.966-37.424 10.475-72.551 25.594-112 48.206-30.602 17.54-56.739 36.889-83.243 61.623-12.502 11.667-28.875 28.59-35.257 36.442-1.375 1.692-4.107 4.892-6.072 7.111-7.926 8.954-32.55 42.72-38.676 53.035-1.633 2.75-5.283 8.746-8.111 13.323-2.827 4.578-5.141 8.48-5.141 8.672 0 0.191-2.156 4.095-4.79 8.676-2.635 4.581-5.739 10.354-6.899 12.829-1.159 2.475-4.404 9.321-7.21 15.213-2.805 5.891-5.101 10.943-5.101 11.225 0 0.281-1.272 3.336-2.827 6.787s-3.849 8.975-5.098 12.275c-1.248 3.3-2.634 6.9-3.079 8-3.695 9.129-11.26 31.68-14.089 42-4.793 17.484-9.264 35.642-12.005 48.75-0.603 2.888-1.473 7.05-1.933 9.25-3.795 18.169-7.505 48.618-10.05 82.5-1.871 24.909-0.351 97.914 2.509 120.5 0.348 2.75 1.085 9.05 1.638 14 1.914 17.154 5.002 37.045 8.927 57.5 3.185 16.602 4.167 21.324 4.99 24 0.423 1.375 1.293 4.975 1.935 8 1.452 6.853 3.103 13.379 7.082 28 3.582 13.161 4.206 15.217 9.206 30.335 2.699 8.16 4.77 15.433 4.601 16.162-0.199 0.86-2.855-0.545-7.556-3.998-12.619-9.269-36.71-23.06-50.501-28.909-2.062-0.874-5.25-2.251-7.084-3.058-4.482-1.974-26.104-9.071-35.549-11.669-8.029-2.209-10.023-2.589-27.617-5.266-6.05-0.92-13.502-2.106-16.56-2.635-8.388-1.451-48.623-1.13-62.94 0.502-12.776 1.457-33.072 5.263-45 8.439-12.932 3.444-35.193 11.735-48 17.879-10.129 4.859-31.283 17.578-40 24.051-2.475 1.838-5.818 4.315-7.428 5.504-3.308 2.443-7.431 5.769-12.571 10.141-5.418 4.608-22.879 22.301-29.034 29.419-4.822 5.577-5.719 6.214-6.999 4.968-5.46-5.312-32.818-26.299-42.468-32.58-11.657-7.586-17.519-11.285-17.886-11.285-0.225 0-3.268-1.718-6.762-3.817-7.865-4.726-32.221-16.62-41.599-20.315-26.852-10.58-54.837-18.761-78.253-22.877-3.575-0.628-8.525-1.522-11-1.987-8.495-1.594-24.519-3.084-41.5-3.859-35.99-1.642-69.178 1.803-109.5 11.367-9.007 2.136-34.998 10.588-41.703 13.56-5.457 2.42-5.512 2.444-18.097 7.9-20.196 8.757-45.395 23.528-67.857 39.777-13.907 10.059-15.06 11.042-30.216 25.746-10.243 9.938-20.6 21.262-32.132 35.132-9.699 11.666-27.46 43.058-35.007 61.873-5.735 14.298-9.246 26.081-14.007 47-8.627 37.902-8.99 91.759-0.884 131 0.568 2.75 1.274 6.672 1.569 8.715 1.268 8.767 11.139 11.867 18.491 5.807 4.602-3.794 5.264-7.267 3.442-18.084-7.418-44.047-7.401-83.021 0.053-117.94 0.763-3.575 1.654-7.85 1.978-9.5 0.744-3.773 6.162-22.851 7.328-25.798 0.479-1.211 2.348-6.027 4.155-10.702 3.091-7.999 11.742-25.76 16.74-34.368 15.115-26.034 42.521-56.211 68.647-75.588 5.5-4.08 11.575-8.588 13.5-10.02 4.174-3.103 17.506-11.417 24.5-15.277 11.031-6.089 43.149-21.747 44.609-21.747 0.857 0 1.856-0.299 2.221-0.664 1.447-1.446 25.424-9.469 35.194-11.776 11.298-2.668 22.276-5.119 28.976-6.47 13.488-2.72 41.089-5.096 59-5.079 13.084 0.013 41.192 2.029 47 3.372 1.1 0.255 6.05 0.985 11 1.623 11.763 1.517 22.879 4.05 42 9.572 4.95 1.429 10.35 2.955 12 3.392 4.524 1.196 12.454 4.027 17.5 6.248 5.053 2.225 8.436 3.64 11.75 4.916 11.369 4.376 38.661 18.174 45.299 22.901 1.518 1.081 3.045 1.965 3.394 1.965 2.428 0 41.42 28.708 47.557 35.014 0.275 0.282 4.1 3.681 8.5 7.552 9.869 8.682 12.45 9.922 17.376 8.347 4.797-1.535 7.209-3.86 13.899-13.399 10.024-14.293 36.333-39.472 54.348-52.014 12.423-8.649 42.361-23.686 56.377-28.317 38.627-12.763 55.365-15.538 93-15.422 29.099 0.09 41.626 1.562 69.5 8.166 5.408 1.281 27.477 8.79 32.768 11.149 27.597 12.305 42.403 21.605 66.732 41.914 3.918 3.271 13.082 12.448 17.503 17.528 1.924 2.21 6.049 6.963 9.168 10.564 8.546 9.864 15.752 11.423 21.981 4.755 4.306-4.609 3.846-8.52-2.754-23.435-14.952-33.786-32.055-87.457-41.395-129.9-0.606-2.75-1.507-6.8-2.004-9-0.496-2.2-1.826-9.175-2.954-15.5s-2.466-13.75-2.974-16.5-1.432-8.825-2.054-13.5-1.533-11.425-2.026-15c-1.099-7.985-2.553-22.172-4.099-40-1.526-17.601-1.551-85.951-0.037-101.5 2.929-30.079 3.843-37.696 7.144-59.5 1.043-6.887 5.688-30.318 6.939-35 0.515-1.925 1.467-5.75 2.115-8.5 1.143-4.843 3.791-14.786 6.125-23 2.887-10.159 13.154-40.547 16.049-47.5 0.572-1.375 1.386-3.4 1.807-4.5 0.422-1.1 1.712-4.133 2.866-6.739 1.155-2.607 2.1-4.958 2.1-5.225 0-2.643 23.296-48.732 28.149-55.69 1.018-1.46 1.851-2.877 1.851-3.148 0-0.761 7.727-13.34 13.328-21.698 28.841-43.037 69.156-85.913 107.19-114 24.481-18.078 46.475-31.464 73.213-44.562 15.238-7.464 32.931-15.139 40.266-17.466 1.375-0.436 6.325-2.224 11-3.972 7.785-2.912 16.403-5.726 24.75-8.082 1.788-0.505 4.712-1.343 6.5-1.862 10.772-3.127 15.639-4.343 24.25-6.056 2.75-0.547 6.8-1.395 9-1.884 13.91-3.092 27.193-5.163 45.5-7.092 5.225-0.551 13.58-1.456 18.568-2.013 13.08-1.459 44.08-1.193 64.932 0.556 23.375 1.961 37.262 3.862 54.5 7.462 5.775 1.206 11.625 2.42 13 2.697 11.653 2.354 45.757 12.955 55.5 17.252 2.2 0.971 6.925 3.025 10.5 4.566 10.151 4.375 39.525 19.611 49.742 25.801 20.374 12.342 38.659 26.472 57.204 44.202 15.127 14.463 16.488 15.453 21.239 15.453 8.338 0 11.625-3.713 15.023-16.968 3.153-12.301 3.436-13.271 5.716-19.532 1.202-3.3 2.866-8.025 3.698-10.5s2.122-5.85 2.867-7.5 2.323-5.475 3.506-8.5c3.33-8.517 14.22-30.522 20.043-40.5 2.889-4.95 5.755-9.9 6.369-11 6.091-10.902 24.01-35.443 36.508-50 10.085-11.748 29.837-31.8 39.126-39.723 14.557-12.416 42.499-32.047 57.459-40.369 3.85-2.142 8.35-4.68 10-5.641 20.541-11.964 65.217-28.66 87.5-32.701 2.475-0.448 7.875-1.492 12-2.319 24.501-4.909 39.047-6.099 66.5-5.44 25.066 0.602 32.749 1.336 58.5 5.594 5.428 0.897 20.754 4.587 33.5 8.064 9.069 2.474 29.732 9.993 40.5 14.738 7.834 3.452 33.832 16.499 38.5 19.32 2.75 1.662 5.675 3.318 6.5 3.678 2.581 1.128 25.121 16.354 33.5 22.628 9.03 6.763 15.757 11.928 16.5 12.671 0.275 0.275 4.325 3.856 9 7.958 10.604 9.304 26.655 25.328 34.599 34.542 8.637 10.017 19.134 23.24 21.126 26.612 0.938 1.588 2.059 2.888 2.491 2.888 0.431 0 0.784-8.687 0.784-19.305v-19.306l-5.701-6.944c-10.862-13.231-38.444-39.947-54.799-53.08-8.774-7.045-43.431-30.875-47.5-32.661-0.825-0.362-3.75-2.026-6.5-3.697-4.812-2.925-34.915-18.007-35.94-18.007-0.276 0-2.877-1.084-5.78-2.409-9.396-4.287-33.807-12.608-47.709-16.263-24.862-6.536-37.326-8.763-63.571-11.355-14.459-1.429-49.744-1.995-58.5-0.939m-4141.5 625.48c-76.977 5.743-141.34 21.147-216.78 51.877-48.48 19.75-102.33 49.634-141.72 78.646-14.445 10.64-26.407 19.714-28.51 21.628-1.106 1.007-4.256 3.615-7 5.798-9.243 7.35-16.49 15.227-16.49 17.923 0 5.788 5.289 12.512 10 12.714 7.696 0.33 10.79-1.209 21.5-10.69 22.938-20.305 67.23-50.692 102.5-70.32 7.026-3.91 37.24-18.937 45-22.381 1.925-0.854 7.099-3.19 11.497-5.189 17.706-8.051 61.537-23.562 82.003-29.021 16.785-4.477 28.799-7.546 33-8.428 2.2-0.461 7.375-1.546 11.5-2.409 13.545-2.836 29.67-5.565 48.5-8.209 29.712-4.171 75.302-6.13 108.5-4.66 80.265 3.552 154.91 19.778 230 49.995 18.709 7.529 60.694 27.716 67.04 32.235 1.523 1.085 3.046 1.972 3.386 1.972 0.339 0 2.295 1.062 4.345 2.361 2.051 1.298 10.029 6.085 17.729 10.637 16.483 9.745 33.721 21.417 52.728 35.704 11.119 8.357 30.483 23.882 32.772 26.275 0.275 0.288 4.325 3.883 9 7.99 6.833 6.004 21.937 20.261 31.902 30.113 4.052 4.007 17.311 18.296 24.084 25.955 4.118 4.656 7.749 8.69 8.071 8.965 1.048 0.897 15.778 19.668 25.288 32.225 11.072 14.619 26.682 37.859 36.12 53.775 3.751 6.325 7.88 13.178 9.177 15.229 1.297 2.05 2.358 3.943 2.358 4.206 0 0.262 1.27 2.634 2.822 5.271s4.765 8.394 7.14 12.794c5.247 9.72 5.65 10.248 9.26 12.115 5.899 3.05 14.184-2.184 18.383-11.615 10.846-24.362 26.37-43.433 49.39-60.675 13.034-9.763 37.029-21.286 54.505-26.173 19.388-5.423 29.016-6.605 54-6.629 23.182-0.023 24.664 0.128 45 4.584 4.95 1.084 10.125 2.211 11.5 2.504 4.681 0.997 22.451 8.551 35.493 15.088 38.832 19.463 76.425 54.471 106.32 99.013 3.4 5.066 6.183 9.485 6.183 9.819 0 0.335 1.35 2.571 3 4.969s3 4.581 3 4.851 2.157 4.239 4.793 8.82c7.075 12.295 19.535 37.958 24.233 49.91 1.171 2.98 2.816 6.994 3.654 8.919s1.981 4.625 2.539 6 1.412 3.281 1.898 4.236 0.883 2.399 0.883 3.208c0 2.249 7.197 9.316 10.273 10.088 5.018 1.26 8.037-0.462 17.259-9.843 20.167-20.516 37.714-34.415 58.882-46.64 7.357-4.248 30.439-15.775 36.336-18.145 1.238-0.497 3.262-1.33 4.5-1.85 8.071-3.395 31.241-10.319 43.75-13.074 42.99-9.47 87.065-10.461 126.5-2.844 11.057 2.136 38.344 8.713 41 9.883 1.1 0.484 4.034 1.538 6.521 2.341 9.943 3.213 29.2 11.357 41.979 17.754 12.373 6.193 18.558 9.777 34 19.698 5.449 3.501 24.71 18.3 31.813 24.443 4.908 4.244 29.957 29.318 33.715 33.748 23.341 27.513 39.694 52.415 54.835 83.497 7.956 16.334 8.658 17.908 13.143 29.5 2.022 5.225 4.064 10.4 4.538 11.5 1.093 2.539 8.254 24.544 9.925 30.5 0.695 2.475 1.618 5.625 2.051 7 0.434 1.375 1.31 4.75 1.948 7.5 0.637 2.75 1.551 6.575 2.032 8.5 2.486 9.957 6.357 30.064 7.51 39 3.469 26.898 4.387 39.422 5.133 70 0.703 28.822 1.014 30.023 8.272 31.977 7.879 2.122 12.504-0.871 18.047-11.677 3.224-6.283 15.258-24.452 20.401-30.8 14.942-18.441 39.933-39.808 60.719-51.915 8.64-5.032 30.932-15.585 32.921-15.585 0.563 0 1.806-0.397 2.761-0.883 7.72-3.928 28.071-9.472 44.236-12.052 15.466-2.469 23.075-3.065 39.098-3.065 19.092 0 25.975 0.81 51.402 6.046 6.457 1.33 25.21 7.679 34.5 11.68 14.273 6.148 22.378 10.649 39.946 22.185 5.1 3.349 9.921 6.089 10.713 6.089 2.993 0 6.942-2.945 9.102-6.788 4.344-7.73 2.563-12.487-7.437-19.856-16.611-12.24-30.534-20.13-46.324-26.251-4.675-1.813-9.4-3.673-10.5-4.135-9.636-4.043-28.892-8.76-48.5-11.882-11.119-1.771-38.624-2.361-54-1.159-18.543 1.449-22.188 2.003-40 6.072-9.196 2.102-25.991 7.031-30.5 8.952-1.1 0.469-4.7 1.881-8 3.139-6.184 2.357-27.586 12.928-35.439 17.504-8.956 5.218-21.285 13.982-27.028 19.211-1.393 1.269-3.736 3.033-5.206 3.92-3.532 2.132-26.502 25.611-30.327 30.999-1.65 2.325-3.276 4.237-3.613 4.25s-1.137-5.714-1.777-12.726c-3.672-40.19-10.113-76.541-18.121-102.25-0.428-1.375-2.212-7.225-3.965-13s-4.005-12.75-5.006-15.5c-3.381-9.292-8.348-21.972-10.577-27-1.22-2.75-3.214-7.25-4.433-10-25.253-56.984-66.248-110.22-113.65-147.58-10.201-8.041-20.999-15.916-21.824-15.916-0.345 0-3.869-2.172-7.832-4.826s-7.88-5.118-8.705-5.477c-0.825-0.358-3.75-2.005-6.5-3.658-6.845-4.117-29.671-15.202-37-17.969-3.3-1.246-6.9-2.657-8-3.135-6.295-2.739-29.914-9.864-42.5-12.821-34.646-8.141-65.647-10.79-100-8.546-20.006 1.307-31.859 2.518-38.683 3.953-2.786 0.585-7.315 1.583-15.567 3.43-2.338 0.523-6.725 1.497-9.75 2.164-5.979 1.319-36.487 11.156-41.75 13.461-1.787 0.783-4.713 2.05-6.5 2.816-9.418 4.034-15.661 6.878-19.25 8.769-11.006 5.798-14.897 7.986-17.483 9.827-1.554 1.107-3.111 2.012-3.46 2.012-0.348 0-4.779 2.783-9.845 6.183-14.397 9.664-28.46 20.675-37.712 29.529-3.025 2.895-5.978 5.269-6.563 5.276-0.996 0.011-2.104-2.187-7.68-15.238-2.708-6.339-18.744-38.451-22.346-44.75-34.607-60.505-74.159-103.63-119.41-130.2-24.191-14.204-50.806-24.73-73-28.87-33.258-6.204-68.513-5.165-99.082 2.918-23.163 6.125-40.208 13.894-61.391 27.982-19.732 13.123-41.371 35.008-50.671 51.247-1.846 3.223-3.784 5.732-4.308 5.575-0.523-0.156-1.697-1.604-2.608-3.217-7.043-12.468-11.658-20.163-15.046-25.088-1.592-2.313-2.894-4.472-2.894-4.797 0-2.201-43.572-63.94-46.965-66.548-0.358-0.275-1.349-1.522-2.202-2.771s-3.078-3.949-4.945-6c-1.866-2.051-4.683-5.304-6.259-7.229-12.239-14.95-31.832-35.553-54.212-57.007-44.369-42.534-99.397-81.789-155.01-110.58-78.334-40.553-160.25-64.595-245.41-72.025-24.395-2.128-81.284-2.602-104.5-0.87m3943.5 257.08c-37.285 4.756-75.841 19.226-108.37 40.671-17.42 11.484-26.571 18.94-39.741 32.383-13.624 13.905-21.727 23.869-32.214 39.618-7.077 10.627-17.68 30.256-22.021 40.765-1.014 2.457-2.439 5.817-3.165 7.467-2.441 5.545-7.131 19.177-9.462 27.5-0.693 2.475-1.632 5.625-2.087 7-0.722 2.18-3.106 12.44-5.925 25.5-5.268 24.409-7.684 61.401-6.085 93.18 0.631 12.551 1.593 26.42 2.136 30.82 2.559 20.738 4.79 35.675 5.974 40 0.451 1.65 1.119 5.363 1.484 8.25 0.512 4.058 0.358 5.25-0.681 5.25-0.739 0-7.869-1.393-15.844-3.096-12.986-2.772-16.839-3.151-36.897-3.622-40.142-0.943-67.91 5.29-104.24 23.398-35.181 17.535-69.12 49.888-86.88 82.82-2.373 4.4-4.683 8.675-5.133 9.5-5.953 10.908-14.203 35.304-13.395 39.611 1.184 6.31 8.46 10.445 15.615 8.874 3.231-0.71 6.09-4.199 7.772-9.485 4.319-13.571 5.998-17.847 11.229-28.587 6.302-12.938 11.824-21.729 20.674-32.913 6.282-7.939 20.77-22.568 26.755-27.016 2.2-1.635 4.225-3.216 4.5-3.512 1.111-1.2 14.852-10.682 19.962-13.775 4.815-2.915 18.948-9.902 24.538-12.132 3.294-1.314 7.359-3.003 9.75-4.052 10.922-4.793 45.994-10.941 62.75-11 9.993-0.035 32.183 2.881 42.5 5.585 2.75 0.721 6.125 1.594 7.5 1.94 2.343 0.59 3.618 1.058 9.25 3.396 6.117 2.541 14.682 5.066 17.18 5.066 3.768 0 10.108-3.69 11.467-6.673 1.465-3.215 1.394-5.136-0.441-12.028-1.59-5.97-2.069-8.125-4.842-21.799-6.829-33.67-9.614-61.344-9.614-95.544 0-21.917 0.503-29.974 3.085-49.456 5.029-37.932 17.545-76.082 34.611-105.5 6.857-11.818 9.626-16.217 13.648-21.681 26.486-35.979 59.603-61.941 99.135-77.718 19.739-7.877 31.145-10.955 54.521-14.711 10.929-1.756 45.485-1.47 56 0.464 25.901 4.763 42.688 10.17 57.952 18.665 10.546 5.869 14.483 8.143 15.548 8.981 3.296 2.594 9.021 5 11.896 5 3.835 0 7.971-2.875 10.124-7.039 3.421-6.615 0.719-11.714-10.064-18.99-24.08-16.25-57.826-28.363-88.956-31.933-12.054-1.383-38.54-1.096-51.5 0.558m-4118 360.52c-32.473 3.225-60.607 8.878-86.5 17.38-50.719 16.654-99.24 42.638-137.87 73.83-13.606 10.986-20.887 17.691-37.008 34.075-26.032 26.457-40.716 45.746-61.67 81.012-11.139 18.747-17.628 25.884-32.462 35.707-15.922 10.544-26.136 15.463-36.991 17.813-3.241 0.702-19.069 0.993-45 0.827-27.315-0.175-42.695 0.129-48.5 0.957-4.675 0.667-12.55 1.696-17.5 2.288-11.33 1.353-20.712 2.813-26.5 4.121-2.475 0.56-6.3 1.417-8.5 1.904-13.842 3.065-23.127 5.452-23.95 6.159-0.523 0.448 47.55 0.815 106.83 0.815h107.78l7.243-5.918c10.233-8.362 18.158-18.523 28.724-36.832 1.032-1.787 2.717-4.713 3.744-6.5 11.452-19.926 29.196-46.077 42.576-62.75 22.463-27.989 50.837-54.828 75.056-70.998 4.4-2.937 8.225-5.663 8.5-6.057s2.75-2.054 5.5-3.689c2.75-1.636 8.825-5.349 13.5-8.253 7.725-4.798 34.894-19.003 36.345-19.003 0.333 0 3.552-1.35 7.155-3s6.769-3 7.036-3 2.618-0.945 5.225-2.1c7.377-3.268 8.345-3.642 14.739-5.696 19.418-6.236 33.881-9.977 50.5-13.063 3.025-0.561 7.975-1.488 11-2.058 7.484-1.412 19.641-2.787 37.283-4.217 11.522-0.934 19.794-0.931 37.5 0.015 12.494 0.667 25.642 1.665 29.217 2.219 3.575 0.553 9.65 1.467 13.5 2.029 3.85 0.563 8.8 1.403 11 1.866 2.2 0.464 6.7 1.4 10 2.082 5.478 1.131 20.628 4.878 28 6.924 4.535 1.259 8.523 2.582 13.5 4.479 2.475 0.943 6.975 2.615 10 3.715s6.625 2.466 8 3.036 3.4 1.381 4.5 1.801c5.185 1.981 20.129 8.576 24.5 10.812 7.726 3.952 20.028 10.817 29.5 16.463 55.912 33.328 105.13 84.18 137.13 141.69 6.343 11.398 15.368 29.327 15.368 30.53 0 0.27 0.87 2.399 1.934 4.731 5.792 12.693 8.066 18.156 8.066 19.377 0 1.079 2.698 1.362 13 1.362 8.116 0 13-0.381 13-1.014 0-0.994-0.529-2.245-2.844-6.722-0.636-1.23-1.156-2.698-1.156-3.261 0-0.564-0.945-3.157-2.1-5.764-1.154-2.606-2.464-5.639-2.909-6.739-5.862-14.485-20.155-42.898-28.829-57.309-10.252-17.034-27.738-40.918-42.573-58.148-7.972-9.26-36.613-36.963-46.192-44.679-33.611-27.077-61.261-44.37-94.897-59.348-9.267-4.127-10.969-4.821-22-8.967-6.05-2.273-12.01-4.554-13.244-5.067-2.609-1.086-27.537-8.206-34.506-9.857-25.281-5.988-33.945-7.343-61.75-9.656-18.778-1.562-47.191-1.729-61-0.357" fill="#060707" fill-rule="evenodd"/>
<path id="path3" d="m0 628.5c0 343.48 0.216 624.5 0.48 624.5 0.263 0 1.501-1.912 2.75-4.25l2.27-4.25 0.278 14.292c0.215 11.097 0.589 14.411 1.669 14.826 0.766 0.294 6.132-2.645 11.924-6.532 5.793-3.886 12.129-7.97 14.081-9.076 1.951-1.105 5.236-2.978 7.298-4.16 14.637-8.393 38.869-20.484 50-24.948 1.237-0.496 3.263-1.307 4.5-1.801 1.237-0.495 3.825-1.44 5.75-2.101 3.972-1.364 6.405-2.28 10-3.765 1.375-0.568 4.075-1.574 6-2.235s4.4-1.585 5.5-2.053c1.701-0.725 7.116-2.517 30.071-9.952 1.689-0.547 4.025-0.995 5.191-0.995s2.367-0.4 2.67-0.89c0.302-0.489 2.016-1.131 3.809-1.427 3.046-0.503 6.422-1.29 16.259-3.791 2.2-0.56 6.137-1.439 8.75-1.955 2.613-0.515 7.113-1.405 10-1.976 8.458-1.674 22.886-4.153 35.25-6.057 30.63-4.715 79.341-6.548 108.5-4.083 30.184 2.552 38.259 3.681 58.5 8.179 2.475 0.55 6.637 1.475 9.25 2.056 2.612 0.58 6.217 1.305 8.009 1.61 1.793 0.305 3.507 0.955 3.809 1.444 0.303 0.49 1.43 0.89 2.505 0.89s2.736 0.398 3.691 0.885c0.955 0.486 4.886 1.859 8.736 3.051s8.012 2.594 9.25 3.115c1.238 0.522 3.262 1.353 4.5 1.847 2.117 0.845 4.48 1.844 13.5 5.709 5.58 2.39 16.677 7.777 17.25 8.373 0.275 0.286 1.574 1.125 2.887 1.864s3.936 2.214 5.829 3.277c4.094 2.3 21.298 13.798 22.917 15.316 0.622 0.585 3.097 2.617 5.5 4.517 7.739 6.119 25.336 24.308 31.759 32.826 15.859 21.032 30.518 50.503 36.171 72.72 3.948 15.513 5.314 18.066 11.351 21.205 3.052 1.588 7.138 1.43 19.086-0.736 29.889-5.419 62.944-5.01 86.75 1.073 10.672 2.727 12.386 3.224 13.986 4.055 0.955 0.497 2.424 0.903 3.264 0.903s2.309 0.412 3.264 0.916 3.536 1.674 5.736 2.601c70.641 29.758 117.48 111.97 129.89 227.98 4.817 45.01 4.33 89.635-1.484 136-4.248 33.872-10.908 63.837-20.966 94.33-4.808 14.579-4.664 16.502 1.723 22.888l4.447 4.448 6.194-0.525c26.157-2.216 43.356-4.244 38.104-4.494-3.694-0.176-33.67 2.629-36.982 3.46-5.611 1.409-14.429-4.806-14.429-10.169 0-1.324 1.506-7.027 3.346-12.673s3.856-12.065 4.479-14.265c2.908-10.26 5.024-18.501 6.163-24 0.683-3.3 1.595-7.35 2.027-9s1.31-5.925 1.952-9.5 1.557-8.3 2.035-10.5c0.477-2.2 1.372-7.6 1.988-12s1.349-9.35 1.629-11c2.236-13.195 5.336-58.05 5.355-77.5 0.031-31.015-2.93-66.627-8.039-96.697-11.474-67.525-37.917-126.2-72.46-160.77-27.814-27.841-59.88-43.784-99.588-49.516-16.374-2.364-50.125-1.222-66.83 2.262-2.994 0.624-8.944 1.155-13.222 1.179-10.696 0.06-11.612-0.954-16.756-18.554-3.516-12.034-5.208-17.16-8.05-24.402-5.684-14.483-16.771-34.135-27.362-48.5-7.003-9.498-25.74-29.022-35.167-36.645-5.36-4.334-23.589-16.7-30.683-20.814-15.456-8.963-44.096-21.089-60.567-25.642-1.788-0.495-4.937-1.379-7-1.965-9.061-2.577-23.593-5.827-35.75-7.995-36.013-6.422-101.91-7.321-140.5-1.916-6.583 0.922-17.605 2.529-24 3.5-1.925 0.293-5.975 0.996-9 1.564s-7.975 1.493-11 2.054c-9.697 1.801-36.871 8.152-42 9.816-1.375 0.446-4.525 1.383-7 2.081-9.347 2.639-27.823 8.86-35.5 11.954-1.1 0.443-3.575 1.347-5.5 2.008s-4.4 1.565-5.5 2.009-4.934 1.93-8.519 3.303c-17.571 6.725-45.143 20.506-63.981 31.978-3.575 2.177-8.027 4.831-9.892 5.897-1.866 1.066-5.418 3.485-7.894 5.376-2.476 1.89-4.887 3.437-5.358 3.437s-0.856-6.417-0.856-14.259c0-15.826-0.695-14.113 7.637-18.835 1.85-1.048 5.051-2.874 7.113-4.058 10.027-5.753 16.738-9.312 27.75-14.72 18.944-9.302 25.376-12.156 42-18.633 6.6-2.572 12.9-5.056 14-5.52 1.1-0.463 3.575-1.318 5.5-1.898s7.55-2.339 12.5-3.908c19.912-6.311 23.013-7.224 34.25-10.086 8.461-2.156 11.83-2.974 16.25-3.95 11.677-2.577 13.895-3.047 19.5-4.133 3.3-0.639 7.8-1.547 10-2.016 2.2-0.47 7.6-1.36 12-1.978 4.4-0.619 10.7-1.519 14-2s10.5-1.34 16-1.909 14.361-1.498 19.692-2.066c12.628-1.344 74.451-1.333 86.195 0.015 21.887 2.512 26.368 3.085 30.613 3.913 2.475 0.483 7.425 1.394 11 2.026 11.001 1.944 24.315 4.942 36.25 8.162 6.84 1.845 27.315 8.739 32.489 10.939 2.619 1.113 6.561 2.779 8.761 3.701 7.629 3.2 29.14 14.119 36.053 18.299 31.273 18.915 61.467 48.706 78.612 77.563 10.418 17.536 18.763 36.009 23.871 52.851 1.168 3.85 2.314 7.602 2.547 8.339 0.321 1.019 1.913 1.192 6.67 0.727 26.941-2.638 59.705-1.177 77.997 3.479 23.615 6.011 35.325 10.16 52.25 18.513 20.488 10.112 26.953 14.006 38.5 23.189 3.025 2.406 7.3 5.76 9.5 7.454 6.652 5.12 27.365 26.76 33.288 34.777 11.478 15.536 13.212 17.947 13.212 18.377 0 0.242 1.839 3.468 4.087 7.168 4.126 6.791 14.427 27.331 18.797 37.477 5.323 12.362 12.978 34.637 15.122 44 0.44 1.925 1.452 5.975 2.248 9s2.001 8.2 2.678 11.5 1.604 7.8 2.06 10c1.767 8.523 3.084 17.836 6.152 43.5 1.693 14.171 1.685 76.815-0.012 91.5-3.082 26.67-5.221 42.38-7.078 52-0.531 2.75-1.435 7.475-2.007 10.5-0.573 3.025-1.448 7.3-1.944 9.5s-1.385 6.25-1.977 9c-1.763 8.194-5.829 23.449-10.127 38-1.761 5.96-3.109 11.028-3.302 12.411-0.164 1.173 2.51 1.373 15.803 1.183 34.375-0.491 66.934 4.318 98.943 14.613 45.156 14.523 76.114 33.631 106.6 65.793 15.413 16.262 34.507 46.093 44.166 69 0.927 2.2 2.597 6.142 3.71 8.761 2.128 5.005 8.904 25.072 11.055 32.739 0.695 2.475 1.618 5.625 2.051 7 1.164 3.689 4.376 17.759 5.48 24 2.091 11.829 2.649 15.257 3.58 22 3.099 22.442 5.37 63.39 3.998 72.069-1.052 6.655-4.257 9.971-10.295 10.652-5.4 0.609-10.149-1.544-12.105-5.488-0.888-1.791-1.778-10.661-2.58-25.733-0.674-12.65-1.61-25.925-2.081-29.5s-1.39-10.55-2.042-15.5c-1.391-10.562-6.333-36.063-8.58-44.27-0.862-3.151-1.922-7.08-2.354-8.73-4.814-18.373-19.319-52.066-28.348-65.846-0.911-1.39-2.612-4.243-3.781-6.34-6.985-12.53-29.342-37.856-43.414-49.18-16.686-13.426-33.72-23.429-53.227-31.256-24.619-9.878-44.56-15.365-68.771-18.925-11.932-1.754-35.594-2.714-34.27-1.389 0.31 0.31 7.698 0.976 16.417 1.479 18.933 1.094 27.949 2.347 43.353 6.027 2.475 0.591 5.967 1.317 7.759 1.613 1.793 0.296 3.507 0.938 3.809 1.427 0.303 0.49 1.622 0.89 2.932 0.89s2.66 0.45 3 1 1.498 1 2.573 1 2.736 0.429 3.691 0.953 4.661 1.926 8.236 3.116 6.927 2.562 7.45 3.047c0.522 0.486 1.615 0.884 2.428 0.884 1.719 0 25.429 11.401 29.122 14.004 1.375 0.969 4.3 2.759 6.5 3.979 3.723 2.063 10.859 7.203 17.983 12.952 1.659 1.339 8.878 8.335 16.041 15.546 13.403 13.493 20.492 22.654 30.968 40.019 6.919 11.469 9.02 15.663 17.03 34 0.72 1.65 2.73 7.05 4.465 12 1.736 4.95 3.551 10.125 4.034 11.5 3.234 9.2 9.054 34.221 11.442 49.195 2.63 16.489 3.59 26.793 4.932 52.954 1.192 23.226 1.521 25.978 3.478 29.146 3.198 5.174 6.16 6.705 12.973 6.705 5.307 0 6.231-0.322 8.968-3.121 1.844-1.886 3.31-4.656 3.706-7l0.656-3.879 25.162 0.036c19.321 0.027 26.555 0.393 31.162 1.578 3.3 0.848 7.125 1.803 8.5 2.123 4.849 1.126 22.073 10.565 25.961 14.227 2.908 2.738 3.794 4.257 3.388 5.808-0.781 2.988 3.06 9.273 7.447 12.189 2.871 1.907 4.968 2.449 9.324 2.41 5.691-0.051 8.994-1.61 14.508-6.849 1.17-1.112 4.019-3.597 6.33-5.522 2.312-1.925 5.007-4.175 5.99-5 0.982-0.825 3.267-2.625 5.077-4s3.783-2.965 4.383-3.533c0.601-0.568 2.667-2.128 4.592-3.467s4.079-2.996 4.786-3.682c0.708-0.686 2.62-2.036 4.25-2.999 1.63-0.962 2.964-2.103 2.964-2.535 0-0.431 0.675-0.784 1.5-0.784s1.5-0.344 1.5-0.764 1.8-1.876 4-3.236 4-2.816 4-3.236 0.675-0.764 1.5-0.764 1.5-0.45 1.5-1 0.675-1 1.5-1 1.5-0.45 1.5-1 0.465-1 1.033-1c0.569 0 5.729-3.15 11.467-7s10.898-7 11.467-7c0.568 0 1.033-0.398 1.033-0.883 0-0.486 0.787-1.133 1.75-1.439 1.713-0.543 7.261-3.689 8.25-4.678 0.275-0.275 1.513-1.062 2.75-1.75 1.237-0.687 3.263-1.812 4.5-2.5 1.237-0.687 2.475-1.475 2.75-1.75 0.585-0.585 6.335-3.673 17.5-9.398 4.4-2.256 8.15-4.44 8.333-4.852 0.184-0.413 0.859-0.746 1.5-0.742 1.014 7e-3 6.985-2.737 22.012-10.119 2.114-1.039 4.476-1.889 5.25-1.889 0.773 0 1.405-0.45 1.405-1s0.632-1 1.405-1c0.774 0 3.361-0.964 5.75-2.142 2.39-1.178 5.245-2.468 6.345-2.866 1.1-0.399 3.237-1.235 4.75-1.858 1.513-0.624 3.987-1.637 5.5-2.251s3.531-1.514 4.486-2 2.643-0.883 3.75-0.883c1.108 0 2.014-0.45 2.014-1s0.906-1 2.014-1c1.107 0 2.907-0.45 4-1 1.092-0.55 2.88-1.45 3.972-2 1.093-0.55 2.866-1 3.941-1s2.233-0.45 2.573-1 1.716-1 3.059-1 2.441-0.45 2.441-1 1.098-1 2.441-1 2.719-0.45 3.059-1 1.941-1 3.559-1 2.941-0.45 2.941-1 1.323-1 2.941-1 3.219-0.45 3.559-1 1.69-1 3-1 2.66-0.45 3-1 2.14-1 4-1 3.66-0.45 4-1 1.915-1 3.5-1 3.16-0.45 3.5-1 2.14-1 4-1 3.66-0.45 4-1 2.14-1 4-1 3.629-0.4 3.932-0.89c0.53-0.857 3.595-1.556 12.068-2.751 2.2-0.31 4.428-0.968 4.95-1.461 0.523-0.494 2.858-0.898 5.191-0.898s4.519-0.45 4.859-1 2.526-1 4.859-1 4.668-0.409 5.191-0.908c0.522-0.499 3.2-1.158 5.95-1.465 2.75-0.306 8.15-1.036 12-1.623 27.961-4.259 60.021-6.64 95-7.053 32.232-0.381 72.872 2.729 105.5 8.073 3.025 0.495 8.65 1.408 12.5 2.028 3.85 0.619 8.8 1.5 11 1.956s6.7 1.39 10 2.075c12.747 2.646 48.993 11.992 57.5 14.826 3.025 1.008 7.75 2.533 10.5 3.388 6.95 2.162 27.051 9.295 33 11.71 1.1 0.446 7.4 2.92 14 5.496s14.025 5.584 16.5 6.684c8.778 3.901 51.539 25.172 54 26.862 1.375 0.944 4.188 2.67 6.25 3.834 2.063 1.164 5.265 2.976 7.117 4.025 1.852 1.05 6.464 3.81 10.25 6.134 3.786 2.325 9.358 5.716 12.383 7.536s8.922 5.697 13.103 8.615c4.182 2.919 9.807 6.842 12.5 8.717 13.45 9.368 32.68 24.418 46.98 36.767 16.882 14.58 52.056 49.133 64.459 63.323 4.087 4.675 7.683 8.725 7.992 9 1.209 1.077 17.068 21.074 24.915 31.415 13.14 17.318 46.051 67.568 46.051 70.313 0 0.255 0.831 1.658 1.847 3.118s4.679 8.054 8.141 14.654c3.461 6.6 7.016 12.834 7.9 13.852 4.275 4.927 11.672 5.985 17.798 2.544 4.879-2.741 5.251-3.269 12.28-17.452 9.17-18.503 25.062-38.149 39.995-49.444 1.818-1.375 4.483-3.519 5.922-4.765 1.44-1.245 3.855-2.817 5.367-3.494 1.512-0.676 2.75-1.569 2.75-1.985s0.637-0.756 1.417-0.756c0.779 0 1.566-0.343 1.75-0.762 0.31-0.711 19.573-10.392 24.583-12.356 4.897-1.919 7.828-3.155 9.486-3.999 0.955-0.486 2.841-0.883 4.191-0.883s2.733-0.45 3.073-1 1.851-1 3.359-1 3.169-0.404 3.691-0.898c0.909-0.858 4.633-1.551 14.45-2.686 2.475-0.286 5.4-0.962 6.5-1.503 1.224-0.601 11.889-0.812 27.5-0.543 26.261 0.452 35.8 1.145 37.45 2.722 0.522 0.499 2.633 0.908 4.691 0.908s4.019 0.45 4.359 1 1.797 1 3.238 1c7.538 0 41.638 15.459 57.539 26.085 39.514 26.405 68.465 57.807 96.815 105.01 9.753 16.238 26.748 50.276 32.916 65.924 1.153 2.926 2.917 7.156 3.921 9.4 1.003 2.245 2.707 6.106 3.785 8.581 2.146 4.925 2.959 5.769 8.566 8.893 4.147 2.311 10.634 2.758 13.985 0.965 1.174-0.628 4.182-3.411 6.685-6.185 6.542-7.251 11.805-12.446 18.595-18.357 10.299-8.965 13.037-11.205 17.455-14.282 1.925-1.341 3.725-2.721 4-3.066 0.701-0.882 15.176-10.479 17-11.271 0.825-0.358 3.75-1.996 6.5-3.64 2.75-1.643 10.175-5.523 16.5-8.621 6.325-3.099 13.23-6.489 15.345-7.535 2.114-1.045 4.483-1.901 5.263-1.901 0.781 0 2.313-0.45 3.406-1 1.092-0.55 2.88-1.45 3.972-2 1.093-0.55 2.674-1 3.514-1s2.309-0.406 3.264-0.903c0.955-0.496 3.761-1.44 6.236-2.097s5.281-1.601 6.236-2.097c0.955-0.497 3.066-0.903 4.691-0.903s3.202-0.4 3.505-0.89c0.302-0.489 2.016-1.142 3.809-1.452 1.792-0.31 4.834-0.84 6.759-1.179 1.925-0.338 4.4-1.011 5.5-1.495s4.25-1.136 7-1.45c2.75-0.313 8.15-1.022 12-1.574 37.339-5.354 75.914-3.957 112 4.059 2.75 0.611 6.69 1.354 8.756 1.651 2.066 0.298 4.005 0.944 4.309 1.436s2.075 0.894 3.935 0.894 3.66 0.45 4 1 1.915 1 3.5 1 3.16 0.45 3.5 1 1.69 1 3 1 2.66 0.45 3 1 1.498 1 2.573 1 2.736 0.397 3.691 0.883c2.267 1.154 8.514 3.759 14.986 6.251 1.238 0.476 3.262 1.268 4.5 1.758 3.736 1.482 28.934 14 33.689 16.736 2.441 1.405 7.029 4.313 10.195 6.463s6.231 3.909 6.811 3.909 1.055 0.45 1.055 1 0.59 1 1.311 1c0.722 0 2.184 0.8 3.25 1.777 1.067 0.978 3.514 2.884 5.439 4.236 3.305 2.322 4.711 3.419 8.951 6.987 0.98 0.825 3.263 2.625 5.072 4 21.066 16.01 50.821 48.906 69.65 77 12.487 18.633 28.353 47.811 34.494 63.44 1.094 2.783 2.58 6.41 3.303 8.06 3.809 8.698 13.111 34.98 15.573 44 2.668 9.772 5.223 19.458 5.935 22.5 4.949 21.122 8.076 39.254 10.001 58 0.48 4.675 1.163 10.975 1.516 14 0.354 3.025 0.949 18.81 1.324 35.079l0.681 29.579 2.689 3.524c3.599 4.717 9.773 6.577 14.811 4.462 4.568-1.918 6.954-4.635 11.542-13.144 13.134-24.361 34.476-48.905 57.469-66.094 10.055-7.517 18.541-13.406 19.317-13.406 0.257 0 3.326-1.713 6.82-3.807 8.784-5.265 18.555-9.829 30.352-14.177 3.3-1.216 6.9-2.568 8-3.005 11.745-4.66 32.294-9.135 50.5-10.999 24.756-2.533 40.77-2.252 58.75 1.03 17.882 3.264 19.459 3.629 31.25 7.233 7.204 2.203 9.104 2.868 13.5 4.725 1.65 0.697 3.9 1.612 5 2.032 14.199 5.426 20.822 9.016 41.742 22.629 10.355 6.738 13.834 7.646 18.243 4.757 3.792-2.484 6.515-7.963 6.515-13.107 0-7.046-3.535-11.774-14.376-19.228l-4.876-3.352 0.533-5.161c1.902-18.43 14.401-37.481 31.158-47.493 6.346-3.791 21.256-9.408 23.099-8.701 0.648 0.249 1.455 1.839 1.794 3.534s1.352 4.204 2.251 5.577c1.883 2.873 8.375 4.989 12.301 4.01 4.119-1.028 8.997-5.277 10.683-9.307 1.416-3.387 1.377-4.716-0.477-16.19-1.111-6.875-2.592-16.775-3.291-22-1.681-12.575-1.676-62.843 8e-3 -73 3.041-18.343 3.356-19.957 6.729-34.5 1.737-7.491 7.686-26.054 9.936-31 0.75-1.65 2.165-5.025 3.145-7.5 2.33-5.886 9.422-19.58 15.019-29 13.865-23.337 41.187-53.759 62.864-70 3.3-2.472 6.225-4.751 6.5-5.063 0.275-0.313 2.75-2.088 5.5-3.945 2.75-1.856 5.15-3.739 5.333-4.184 0.184-0.444 0.971-0.808 1.75-0.808 0.78 0 1.417-0.45 1.417-1s0.675-1 1.5-1 1.5-0.45 1.5-1 0.481-1 1.07-1c0.588 0 3.032-1.35 5.43-3s4.804-3 5.347-3c0.542 0 1.136-0.338 1.32-0.75 0.449-1.011 7.038-4.511 27.833-14.785 9.625-4.755 18.281-9.055 19.236-9.555 0.955-0.501 2.424-0.91 3.264-0.91s2.309-0.397 3.264-0.883 3.086-1.439 4.736-2.117 3.781-1.631 4.736-2.117 2.616-0.883 3.691-0.883 2.233-0.45 2.573-1 1.941-1 3.559-1 2.941-0.401 2.941-0.891c0-0.489 1.462-1.132 3.25-1.427 1.787-0.296 5.275-1.048 7.75-1.671 2.475-0.624 5.85-1.362 7.5-1.641 1.65-0.278 3.9-0.898 5-1.376 1.1-0.479 3.575-1.104 5.5-1.39 1.925-0.287 5.975-1.017 9-1.624 13.039-2.616 41.942-5.205 59.5-5.331 12.195-0.087 38.172 1.697 49 3.366 3.85 0.593 9.7 1.321 13 1.616 3.3 0.296 6.427 0.95 6.95 1.453 0.522 0.504 2.633 0.916 4.691 0.916s4.019 0.45 4.359 1 2.14 1 4 1 3.66 0.45 4 1 2.14 1 4 1 3.66 0.45 4 1 1.915 1 3.5 1 3.16 0.45 3.5 1 1.915 1 3.5 1 3.16 0.45 3.5 1 1.69 1 3 1 2.66 0.45 3 1 1.723 1 3.073 1 3.236 0.397 4.191 0.883c1.788 0.91 5.851 2.643 10.236 4.367 1.375 0.541 3.281 1.381 4.236 1.867s2.418 0.883 3.25 0.883c0.833 0 1.514 0.45 1.514 1s0.681 1 1.514 1c0.832 0 2.295 0.397 3.25 0.883s2.861 1.331 4.236 1.877c5.037 2.002 30.874 15.114 32 16.24 0.989 0.989 6.537 4.135 8.25 4.678 0.963 0.306 1.75 0.953 1.75 1.439 0 0.485 0.475 0.883 1.055 0.883 1.271 0 13.306 8.018 13.778 9.181 0.184 0.45 0.741 0.819 1.239 0.819s1.698 0.65 2.667 1.444c0.968 0.795 4.686 3.593 8.261 6.219 3.575 2.627 6.725 5.02 7 5.32 0.275 0.299 2.975 2.558 6 5.02 3.025 2.461 7.525 6.348 10 8.638 9.645 8.921 12.546 11.313 13.75 11.336 0.688 0.013 1.25 0.473 1.25 1.023 0 1.547 7.331 1.181 10.776-0.538 3.486-1.739 6.711-5.289 13.224-14.558 4.634-6.595 31.071-33.709 38.916-39.912 2.428-1.921 6.703-5.031 9.5-6.912 2.796-1.881 5.234-3.794 5.417-4.25 0.184-0.457 0.971-0.83 1.75-0.83 0.78 0 1.417-0.398 1.417-0.883 0-0.486 0.788-1.141 1.75-1.456s4-1.933 6.75-3.595 7.475-4.253 10.5-5.757c3.025-1.505 5.65-3.09 5.833-3.522 0.184-0.433 1.196-0.787 2.25-0.787 1.055 0 1.917-0.45 1.917-1s0.632-1 1.405-1c0.774 0 3.361-0.964 5.75-2.142 2.39-1.178 5.47-2.581 6.845-3.117s3.281-1.372 4.236-1.858 2.616-0.883 3.691-0.883 2.233-0.45 2.573-1 1.69-1 3-1 2.66-0.45 3-1 1.723-1 3.073-1 3.236-0.395 4.191-0.877c2.889-1.46 8.746-3.123 10.998-3.123 1.166 0 2.369-0.402 2.673-0.894s2.243-1.144 4.309-1.45c2.066-0.305 6.231-1.049 9.256-1.654 17.976-3.594 65.697-4.824 84.5-2.179 4.95 0.697 11.25 1.513 14 1.814s5.427 0.956 5.95 1.455c0.522 0.499 2.633 0.908 4.691 0.908s4.019 0.45 4.359 1 1.797 1 3.238 1c2.678 0 8.386 1.55 11.498 3.123 0.955 0.482 2.616 0.877 3.691 0.877s2.233 0.45 2.573 1 1.69 1 3 1 2.66 0.45 3 1 1.498 1 2.573 1 2.736 0.401 3.691 0.891c0.955 0.489 3.761 1.785 6.236 2.878 7.689 3.396 22.475 10.652 23 11.287 0.275 0.332 1.962 1.241 3.75 2.018 1.788 0.778 3.25 1.754 3.25 2.17s0.675 0.756 1.5 0.756 1.5 0.45 1.5 1 0.675 1 1.5 1 1.5 0.45 1.5 1 0.59 1 1.311 1c0.722 0 2.278 0.9 3.459 2 1.18 1.1 2.53 2 3 2 0.469 0 1.726 0.788 2.792 1.75 1.067 0.963 3.514 2.936 5.439 4.387 1.924 1.45 4.471 3.475 5.659 4.5 1.188 1.024 4.105 3.438 6.483 5.363 5.359 4.338 15.735 14.853 21.215 21.5 2.268 2.75 6.698 7.587 9.846 10.75 5.583 5.61 5.856 5.75 11.226 5.75 4.966 0 5.848-0.345 9.037-3.533 1.943-1.944 3.598-4.531 3.678-5.75 0.332-5.05-0.472-9.376-2.629-14.155-5.17-11.454-8.972-20.502-11.792-28.062-3.777-10.125-17.277-49.584-18.023-52.676-0.308-1.278-1.532-5.699-2.721-9.824-2.983-10.354-3.963-13.899-5.046-18.25-0.514-2.062-1.362-5.437-1.885-7.5-0.914-3.603-2.37-9.837-4.029-17.25-3.761-16.805-8.311-41.611-10.913-59.5-2.429-16.698-3.098-23.082-5.289-50.5-1.453-18.189-1.797-82.09-0.533-99 1.174-15.703 3.939-41.028 5.787-53 3.071-19.897 6.22-36.082 9.923-51 2.363-9.522 5.289-20.766 5.985-23 0.428-1.375 1.786-5.875 3.018-10s2.574-8.4 2.983-9.5c0.408-1.1 1.284-3.8 1.947-6 0.662-2.2 1.581-4.9 2.041-6s1.737-4.475 2.837-7.5c3.017-8.29 7.188-19.099 8.778-22.75 0.779-1.788 2.044-4.713 2.81-6.5 5.106-11.899 12.972-28.076 18.764-38.589 1.715-3.114 4.124-7.486 5.352-9.717 21.124-38.359 51.471-77.189 86.946-111.25 21.623-20.759 51.149-42.987 78.044-58.753 63.967-37.497 131.63-58.663 209.5-65.536 17.494-1.544 68.028-0.6 84 1.57 58.929 8.003 95.736 19.024 140.5 42.069 35.989 18.527 56.905 33.563 87.803 63.118l10.803 10.334h6.043c9.274 0 12.641-3.158 15.721-14.75 2.739-10.304 3.565-13.156 5.718-19.75 3.602-11.031 7.891-22.494 10.767-28.78 1.455-3.178 2.645-6.054 2.645-6.389s2.79-6.284 6.199-13.22c25.366-51.602 64.988-100.58 107.8-133.26 11.644-8.887 41.763-28.855 43.523-28.855 0.176 0 4.067-2.151 8.648-4.781 7.641-4.386 21.274-11.219 22.385-11.219 0.256 0 2.598-0.945 5.205-2.1 6.028-2.67 7.43-3.23 14.739-5.882 3.3-1.198 6.781-2.592 7.736-3.098s2.616-0.92 3.691-0.92 2.201-0.398 2.502-0.885c0.3-0.486 1.79-1.11 3.309-1.386 1.519-0.275 6.587-1.616 11.262-2.98 4.675-1.363 11.2-3.026 14.5-3.695s7.8-1.614 10-2.1c24.443-5.4 56.909-7.778 82.499-6.042 15.617 1.06 19.909 1.543 37.251 4.198 8.744 1.338 19.795 3.509 25.25 4.959 2.2 0.585 5.575 1.442 7.5 1.905 4.388 1.054 14.108 4.013 24.5 7.458 8.242 2.732 8.744 2.926 16.739 6.468 2.607 1.155 4.958 2.1 5.225 2.1 0.547 0 10.747 4.62 20.536 9.302 51.705 24.73 103.69 67.663 138.27 114.2 5.86 7.886 8.317 10.247 9.465 9.098 0.322-0.321 0.74-351.92 0.929-781.34 0.189-429.42-0.031-779.89-0.488-778.82-0.574 1.335-1.057 1.567-1.563 0.75-0.563-0.911-707.85-1.184-3071.7-1.184h-3070.9v624.5m0.497 0c0 343.75 0.114 484.23 0.253 312.17s0.139-453.31 0-625-0.253-30.918-0.253 312.83m5815.5 749.53c-4.125 0.497-12 1.411-17.5 2.031s-15.85 2.258-23 3.64c-7.15 1.381-15.025 2.901-17.5 3.377s-6.075 1.302-8 1.835c-1.925 0.534-5.075 1.395-7 1.915-6.947 1.874-27.721 9.059-38 13.142-26.511 10.531-60.695 29.352-80 44.046-1.925 1.465-6.96 5.214-11.188 8.331-4.228 3.118-8.289 6.226-9.024 6.908-0.735 0.683-5.151 4.576-9.812 8.653-9.758 8.533-29.129 27.96-36.545 36.649-22.7 26.598-33.148 40.991-46.414 63.939-0.954 1.65-2.921 5.025-4.371 7.5-3.896 6.649-15.007 28.815-17.043 34-0.972 2.475-2.451 6.075-3.287 8-3.28 7.554-8.741 21.976-10.884 28.75-0.914 2.888-2.173 5.246-2.797 5.241-0.624-4e-3 -2.71-1.468-4.635-3.253-10.893-10.097-28.743-23.835-44.133-33.965-30.653-20.177-61.474-35.291-94.499-46.34-11.378-3.807-13.216-4.328-41.368-11.72-6.737-1.769-22.767-4.762-35.5-6.628-13.077-1.916-14.993-2.115-34.5-3.586-22.673-1.71-51.014-1.928-64.83-0.499-37.296 3.859-46.197 5.115-71.67 10.12-8.307 1.632-21.63 4.705-26 5.997-1.65 0.488-7.95 2.272-14 3.966-37.424 10.475-72.551 25.594-112 48.206-30.602 17.54-56.739 36.889-83.243 61.623-12.502 11.667-28.875 28.59-35.257 36.442-1.375 1.692-4.107 4.892-6.072 7.111-7.926 8.954-32.55 42.72-38.676 53.035-1.633 2.75-5.283 8.746-8.111 13.323-2.827 4.578-5.141 8.48-5.141 8.672 0 0.191-2.156 4.095-4.79 8.676-2.635 4.581-5.739 10.354-6.899 12.829-1.159 2.475-4.404 9.321-7.21 15.213-2.805 5.891-5.101 10.943-5.101 11.225 0 0.281-1.272 3.336-2.827 6.787s-3.849 8.975-5.098 12.275c-1.248 3.3-2.634 6.9-3.079 8-3.695 9.129-11.26 31.68-14.089 42-4.793 17.484-9.264 35.642-12.005 48.75-0.603 2.888-1.473 7.05-1.933 9.25-3.795 18.169-7.505 48.618-10.05 82.5-1.871 24.909-0.351 97.914 2.509 120.5 0.348 2.75 1.085 9.05 1.638 14 1.914 17.154 5.002 37.045 8.927 57.5 3.185 16.602 4.167 21.324 4.99 24 0.423 1.375 1.293 4.975 1.935 8 1.452 6.853 3.103 13.379 7.082 28 3.582 13.161 4.206 15.217 9.206 30.335 2.699 8.16 4.77 15.433 4.601 16.162-0.199 0.86-2.855-0.545-7.556-3.998-12.619-9.269-36.71-23.06-50.501-28.909-2.062-0.874-5.25-2.251-7.084-3.058-4.482-1.974-26.104-9.071-35.549-11.669-8.029-2.209-10.023-2.589-27.617-5.266-6.05-0.92-13.502-2.106-16.56-2.635-8.388-1.451-48.623-1.13-62.94 0.502-12.776 1.457-33.072 5.263-45 8.439-12.932 3.444-35.193 11.735-48 17.879-10.129 4.859-31.283 17.578-40 24.051-2.475 1.838-5.818 4.315-7.428 5.504-3.308 2.443-7.431 5.769-12.571 10.141-5.418 4.608-22.879 22.301-29.034 29.419-4.822 5.577-5.719 6.214-6.999 4.968-5.46-5.312-32.818-26.299-42.468-32.58-11.657-7.586-17.519-11.285-17.886-11.285-0.225 0-3.268-1.718-6.762-3.817-7.865-4.726-32.221-16.62-41.599-20.315-26.852-10.58-54.837-18.761-78.253-22.877-3.575-0.628-8.525-1.522-11-1.987-8.495-1.594-24.519-3.084-41.5-3.859-35.99-1.642-69.178 1.803-109.5 11.367-9.007 2.136-34.998 10.588-41.703 13.56-5.457 2.42-5.512 2.444-18.097 7.9-20.196 8.757-45.395 23.528-67.857 39.777-13.907 10.059-15.06 11.042-30.216 25.746-10.243 9.938-20.6 21.262-32.132 35.132-9.699 11.666-27.46 43.058-35.007 61.873-5.735 14.298-9.246 26.081-14.007 47-8.627 37.902-8.99 91.759-0.884 131 0.568 2.75 1.274 6.672 1.569 8.715 1.268 8.767 11.139 11.867 18.491 5.807 4.602-3.794 5.264-7.267 3.442-18.084-7.418-44.047-7.401-83.021 0.053-117.94 0.763-3.575 1.654-7.85 1.978-9.5 0.744-3.773 6.162-22.851 7.328-25.798 0.479-1.211 2.348-6.027 4.155-10.702 3.091-7.999 11.742-25.76 16.74-34.368 15.115-26.034 42.521-56.211 68.647-75.588 5.5-4.08 11.575-8.588 13.5-10.02 4.174-3.103 17.506-11.417 24.5-15.277 11.031-6.089 43.149-21.747 44.609-21.747 0.857 0 1.856-0.299 2.221-0.664 1.447-1.446 25.424-9.469 35.194-11.776 11.298-2.668 22.276-5.119 28.976-6.47 13.488-2.72 41.089-5.096 59-5.079 13.084 0.013 41.192 2.029 47 3.372 1.1 0.255 6.05 0.985 11 1.623 11.763 1.517 22.879 4.05 42 9.572 4.95 1.429 10.35 2.955 12 3.392 4.524 1.196 12.454 4.027 17.5 6.248 5.053 2.225 8.436 3.64 11.75 4.916 11.369 4.376 38.661 18.174 45.299 22.901 1.518 1.081 3.045 1.965 3.394 1.965 2.428 0 41.42 28.708 47.557 35.014 0.275 0.282 4.1 3.681 8.5 7.552 9.869 8.682 12.45 9.922 17.376 8.347 4.797-1.535 7.209-3.86 13.899-13.399 10.024-14.293 36.333-39.472 54.348-52.014 12.423-8.649 42.361-23.686 56.377-28.317 38.627-12.763 55.365-15.538 93-15.422 29.099 0.09 41.626 1.562 69.5 8.166 5.408 1.281 27.477 8.79 32.768 11.149 27.597 12.305 42.403 21.605 66.732 41.914 3.918 3.271 13.082 12.448 17.503 17.528 1.924 2.21 6.049 6.963 9.168 10.564 8.546 9.864 15.752 11.423 21.981 4.755 4.306-4.609 3.846-8.52-2.754-23.435-14.952-33.786-32.055-87.457-41.395-129.9-0.606-2.75-1.507-6.8-2.004-9-0.496-2.2-1.826-9.175-2.954-15.5s-2.466-13.75-2.974-16.5-1.432-8.825-2.054-13.5-1.533-11.425-2.026-15c-1.099-7.985-2.553-22.172-4.099-40-1.526-17.601-1.551-85.951-0.037-101.5 2.929-30.079 3.843-37.696 7.144-59.5 1.043-6.887 5.688-30.318 6.939-35 0.515-1.925 1.467-5.75 2.115-8.5 1.143-4.843 3.791-14.786 6.125-23 2.887-10.159 13.154-40.547 16.049-47.5 0.572-1.375 1.386-3.4 1.807-4.5 0.422-1.1 1.712-4.133 2.866-6.739 1.155-2.607 2.1-4.958 2.1-5.225 0-2.643 23.296-48.732 28.149-55.69 1.018-1.46 1.851-2.877 1.851-3.148 0-0.761 7.727-13.34 13.328-21.698 28.841-43.037 69.156-85.913 107.19-114 24.481-18.078 46.475-31.464 73.213-44.562 15.238-7.464 32.931-15.139 40.266-17.466 1.375-0.436 6.325-2.224 11-3.972 7.785-2.912 16.403-5.726 24.75-8.082 1.788-0.505 4.712-1.343 6.5-1.862 10.772-3.127 15.639-4.343 24.25-6.056 2.75-0.547 6.8-1.395 9-1.884 13.91-3.092 27.193-5.163 45.5-7.092 5.225-0.551 13.58-1.456 18.568-2.013 13.08-1.459 44.08-1.193 64.932 0.556 23.375 1.961 37.262 3.862 54.5 7.462 5.775 1.206 11.625 2.42 13 2.697 11.653 2.354 45.757 12.955 55.5 17.252 2.2 0.971 6.925 3.025 10.5 4.566 10.151 4.375 39.525 19.611 49.742 25.801 20.374 12.342 38.659 26.472 57.204 44.202 15.127 14.463 16.488 15.453 21.239 15.453 8.338 0 11.625-3.713 15.023-16.968 3.153-12.301 3.436-13.271 5.716-19.532 1.202-3.3 2.866-8.025 3.698-10.5s2.122-5.85 2.867-7.5 2.323-5.475 3.506-8.5c3.33-8.517 14.22-30.522 20.043-40.5 2.889-4.95 5.755-9.9 6.369-11 6.091-10.902 24.01-35.443 36.508-50 10.085-11.748 29.837-31.8 39.126-39.723 14.557-12.416 42.499-32.047 57.459-40.369 3.85-2.142 8.35-4.68 10-5.641 20.541-11.964 65.217-28.66 87.5-32.701 2.475-0.448 7.875-1.492 12-2.319 24.501-4.909 39.047-6.099 66.5-5.44 25.066 0.602 32.749 1.336 58.5 5.594 5.428 0.897 20.754 4.587 33.5 8.064 9.069 2.474 29.732 9.993 40.5 14.738 7.834 3.452 33.832 16.499 38.5 19.32 2.75 1.662 5.675 3.318 6.5 3.678 2.581 1.128 25.121 16.354 33.5 22.628 9.03 6.763 15.757 11.928 16.5 12.671 0.275 0.275 4.325 3.856 9 7.958 10.604 9.304 26.655 25.328 34.599 34.542 8.637 10.017 19.134 23.24 21.126 26.612 0.938 1.588 2.059 2.888 2.491 2.888 0.431 0 0.784-8.687 0.784-19.305v-19.306l-5.701-6.944c-10.862-13.231-38.444-39.947-54.799-53.08-8.774-7.045-43.431-30.875-47.5-32.661-0.825-0.362-3.75-2.026-6.5-3.697-4.812-2.925-34.915-18.007-35.94-18.007-0.276 0-2.877-1.084-5.78-2.409-9.396-4.287-33.807-12.608-47.709-16.263-24.862-6.536-37.326-8.763-63.571-11.355-14.459-1.429-49.744-1.995-58.5-0.939m-4141.5 625.48c-76.977 5.743-141.34 21.147-216.78 51.877-48.48 19.75-102.33 49.634-141.72 78.646-14.445 10.64-26.407 19.714-28.51 21.628-1.106 1.007-4.256 3.615-7 5.798-9.243 7.35-16.49 15.227-16.49 17.923 0 5.788 5.289 12.512 10 12.714 7.696 0.33 10.79-1.209 21.5-10.69 22.938-20.305 67.23-50.692 102.5-70.32 7.026-3.91 37.24-18.937 45-22.381 1.925-0.854 7.099-3.19 11.497-5.189 17.706-8.051 61.537-23.562 82.003-29.021 16.785-4.477 28.799-7.546 33-8.428 2.2-0.461 7.375-1.546 11.5-2.409 13.545-2.836 29.67-5.565 48.5-8.209 29.712-4.171 75.302-6.13 108.5-4.66 80.265 3.552 154.91 19.778 230 49.995 18.709 7.529 60.694 27.716 67.04 32.235 1.523 1.085 3.046 1.972 3.386 1.972 0.339 0 2.295 1.062 4.345 2.361 2.051 1.298 10.029 6.085 17.729 10.637 16.483 9.745 33.721 21.417 52.728 35.704 11.119 8.357 30.483 23.882 32.772 26.275 0.275 0.288 4.325 3.883 9 7.99 6.833 6.004 21.937 20.261 31.902 30.113 4.052 4.007 17.311 18.296 24.084 25.955 4.118 4.656 7.749 8.69 8.071 8.965 1.048 0.897 15.778 19.668 25.288 32.225 11.072 14.619 26.682 37.859 36.12 53.775 3.751 6.325 7.88 13.178 9.177 15.229 1.297 2.05 2.358 3.943 2.358 4.206 0 0.262 1.27 2.634 2.822 5.271s4.765 8.394 7.14 12.794c5.247 9.72 5.65 10.248 9.26 12.115 5.899 3.05 14.184-2.184 18.383-11.615 10.846-24.362 26.37-43.433 49.39-60.675 13.034-9.763 37.029-21.286 54.505-26.173 19.388-5.423 29.016-6.605 54-6.629 23.182-0.023 24.664 0.128 45 4.584 4.95 1.084 10.125 2.211 11.5 2.504 4.681 0.997 22.451 8.551 35.493 15.088 38.832 19.463 76.425 54.471 106.32 99.013 3.4 5.066 6.183 9.485 6.183 9.819 0 0.335 1.35 2.571 3 4.969s3 4.581 3 4.851 2.157 4.239 4.793 8.82c7.075 12.295 19.535 37.958 24.233 49.91 1.171 2.98 2.816 6.994 3.654 8.919s1.981 4.625 2.539 6 1.412 3.281 1.898 4.236 0.883 2.399 0.883 3.208c0 2.249 7.197 9.316 10.273 10.088 5.018 1.26 8.037-0.462 17.259-9.843 20.167-20.516 37.714-34.415 58.882-46.64 7.357-4.248 30.439-15.775 36.336-18.145 1.238-0.497 3.262-1.33 4.5-1.85 8.071-3.395 31.241-10.319 43.75-13.074 42.99-9.47 87.065-10.461 126.5-2.844 11.057 2.136 38.344 8.713 41 9.883 1.1 0.484 4.034 1.538 6.521 2.341 9.943 3.213 29.2 11.357 41.979 17.754 12.373 6.193 18.558 9.777 34 19.698 5.449 3.501 24.71 18.3 31.813 24.443 4.908 4.244 29.957 29.318 33.715 33.748 23.341 27.513 39.694 52.415 54.835 83.497 7.956 16.334 8.658 17.908 13.143 29.5 2.022 5.225 4.064 10.4 4.538 11.5 1.093 2.539 8.254 24.544 9.925 30.5 0.695 2.475 1.618 5.625 2.051 7 0.434 1.375 1.31 4.75 1.948 7.5 0.637 2.75 1.551 6.575 2.032 8.5 2.486 9.957 6.357 30.064 7.51 39 3.469 26.898 4.387 39.422 5.133 70 0.703 28.822 1.014 30.023 8.272 31.977 7.879 2.122 12.504-0.871 18.047-11.677 3.224-6.283 15.258-24.452 20.401-30.8 14.942-18.441 39.933-39.808 60.719-51.915 8.64-5.032 30.932-15.585 32.921-15.585 0.563 0 1.806-0.397 2.761-0.883 7.72-3.928 28.071-9.472 44.236-12.052 15.466-2.469 23.075-3.065 39.098-3.065 19.092 0 25.975 0.81 51.402 6.046 6.457 1.33 25.21 7.679 34.5 11.68 14.273 6.148 22.378 10.649 39.946 22.185 5.1 3.349 9.921 6.089 10.713 6.089 2.993 0 6.942-2.945 9.102-6.788 4.344-7.73 2.563-12.487-7.437-19.856-16.611-12.24-30.534-20.13-46.324-26.251-4.675-1.813-9.4-3.673-10.5-4.135-9.636-4.043-28.892-8.76-48.5-11.882-11.119-1.771-38.624-2.361-54-1.159-18.543 1.449-22.188 2.003-40 6.072-9.196 2.102-25.991 7.031-30.5 8.952-1.1 0.469-4.7 1.881-8 3.139-6.184 2.357-27.586 12.928-35.439 17.504-8.956 5.218-21.285 13.982-27.028 19.211-1.393 1.269-3.736 3.033-5.206 3.92-3.532 2.132-26.502 25.611-30.327 30.999-1.65 2.325-3.276 4.237-3.613 4.25s-1.137-5.714-1.777-12.726c-3.672-40.19-10.113-76.541-18.121-102.25-0.428-1.375-2.212-7.225-3.965-13s-4.005-12.75-5.006-15.5c-3.381-9.292-8.348-21.972-10.577-27-1.22-2.75-3.214-7.25-4.433-10-25.253-56.984-66.248-110.22-113.65-147.58-10.201-8.041-20.999-15.916-21.824-15.916-0.345 0-3.869-2.172-7.832-4.826s-7.88-5.118-8.705-5.477c-0.825-0.358-3.75-2.005-6.5-3.658-6.845-4.117-29.671-15.202-37-17.969-3.3-1.246-6.9-2.657-8-3.135-6.295-2.739-29.914-9.864-42.5-12.821-34.646-8.141-65.647-10.79-100-8.546-20.006 1.307-31.859 2.518-38.683 3.953-2.786 0.585-7.315 1.583-15.567 3.43-2.338 0.523-6.725 1.497-9.75 2.164-5.979 1.319-36.487 11.156-41.75 13.461-1.787 0.783-4.713 2.05-6.5 2.816-9.418 4.034-15.661 6.878-19.25 8.769-11.006 5.798-14.897 7.986-17.483 9.827-1.554 1.107-3.111 2.012-3.46 2.012-0.348 0-4.779 2.783-9.845 6.183-14.397 9.664-28.46 20.675-37.712 29.529-3.025 2.895-5.978 5.269-6.563 5.276-0.996 0.011-2.104-2.187-7.68-15.238-2.708-6.339-18.744-38.451-22.346-44.75-34.607-60.505-74.159-103.63-119.41-130.2-24.191-14.204-50.806-24.73-73-28.87-33.258-6.204-68.513-5.165-99.082 2.918-23.163 6.125-40.208 13.894-61.391 27.982-19.732 13.123-41.371 35.008-50.671 51.247-1.846 3.223-3.784 5.732-4.308 5.575-0.523-0.156-1.697-1.604-2.608-3.217-7.043-12.468-11.658-20.163-15.046-25.088-1.592-2.313-2.894-4.472-2.894-4.797 0-2.201-43.572-63.94-46.965-66.548-0.358-0.275-1.349-1.522-2.202-2.771s-3.078-3.949-4.945-6c-1.866-2.051-4.683-5.304-6.259-7.229-12.239-14.95-31.832-35.553-54.212-57.007-44.369-42.534-99.397-81.789-155.01-110.58-78.334-40.553-160.25-64.595-245.41-72.025-24.395-2.128-81.284-2.602-104.5-0.87m3946.1 255.19c-0.437 0.437-4.02 1.117-7.962 1.51-11.461 1.144-16.101 1.927-17.118 2.887-0.522 0.494-2.408 0.898-4.191 0.898s-3.519 0.45-3.859 1-1.915 1-3.5 1-3.16 0.45-3.5 1-1.915 1-3.5 1-3.16 0.45-3.5 1-1.498 1-2.573 1-2.848 0.45-3.941 1c-1.092 0.55-2.88 1.45-3.972 2-1.093 0.55-2.866 1-3.941 1s-2.233 0.45-2.573 1-1.491 1-2.559 1-1.941 0.45-1.941 1-0.681 1-1.514 1c-0.832 0-2.295 0.41-3.25 0.911s-6.011 2.991-11.236 5.532c-5.225 2.542-11.432 5.736-13.793 7.098-4.777 2.756-28.422 18.442-29.207 19.376-0.275 0.327-2.3 1.903-4.5 3.502-7.814 5.68-34.138 33.144-41.773 43.581-4.225 5.775-8.167 11.07-8.76 11.768-5.775 6.786-20.072 34.316-26.865 51.732-2.359 6.05-4.652 11.9-5.095 13-2.447 6.078-7.403 23.398-9.944 34.75-7.325 32.726-9.502 55.822-8.746 92.75 0.705 34.393 2.999 58.662 7.705 81.5 0.567 2.75 1.306 7.188 1.642 9.861 0.558 4.434 0.446 4.813-1.276 4.31-41.526-12.134-91.804-9.559-133.39 6.831-29.679 11.699-53.618 27.369-76.27 49.926-23.285 23.187-39.68 50.064-49.689 81.455l-3.31 10.383 2.061 4.242c1.511 3.111 3.231 4.809 6.45 6.367 5.434 2.631 8.349 2.672 12.444 0.175 3.907-2.383 4.648-3.732 8.422-15.341 1.646-5.065 3.698-10.784 4.559-12.709 10.581-23.641 21.281-39.693 37.181-55.777 11.405-11.538 16.844-15.987 31.652-25.894 11.507-7.699 32.118-18.329 35.539-18.329 0.543 0 1.77-0.397 2.725-0.883 2.88-1.466 6.591-2.912 9.236-3.601 1.375-0.358 4.075-1.105 6-1.659 3.828-1.102 9.752-2.424 17.5-3.904 15.515-2.964 45.684-3.405 59.5-0.87 17.478 3.207 21.716 4.307 30.25 7.851 13.362 5.549 21.719 6.414 27.216 2.816 5.828-3.815 6.843-8.775 3.978-19.451-0.856-3.19-1.924-7.824-2.375-10.299-0.45-2.475-1.552-8.1-2.448-12.5-7.43-36.475-10.597-76.938-8.693-111.03 0.645-11.533 1.571-23.443 2.06-26.468 0.488-3.025 1.383-8.875 1.989-13 1.054-7.17 1.431-9.093 4.016-20.5 1.993-8.794 2.812-11.729 7.115-25.5 2.32-7.425 4.595-13.928 5.055-14.45s0.837-1.524 0.837-2.225c0-6.38 26.876-54.235 35.002-62.325 0.276-0.275 3.073-3.681 6.215-7.568 7.462-9.233 21.829-23.014 32.769-31.432 10.586-8.145 14.652-10.98 15.764-10.989 0.688-6e-3 1.25-0.461 1.25-1.011s0.675-1 1.5-1 1.5-0.45 1.5-1 0.637-1 1.417-1c0.779 0 1.566-0.338 1.75-0.75 0.46-1.036 17.871-10.177 23.583-12.382 1.238-0.477 3.375-1.318 4.75-1.868l5-2c6.118-2.447 8.112-3.29 9.736-4.117 0.955-0.486 2.616-0.883 3.691-0.883s2.202-0.4 2.505-0.89c0.302-0.489 2.016-1.142 3.809-1.452 1.792-0.31 4.834-0.84 6.759-1.179 1.925-0.338 4.4-1.009 5.5-1.49 1.1-0.482 4.025-1.134 6.5-1.45 2.475-0.315 7.65-1.091 11.5-1.724 7.709-1.267 46.504-1.548 56-0.406 3.3 0.397 6.9 1.115 8 1.595 1.1 0.479 3.8 1.138 6 1.463 8.132 1.202 10.532 1.775 11.068 2.643 0.303 0.49 1.847 0.89 3.432 0.89s3.16 0.45 3.5 1 1.498 1 2.573 1 2.736 0.397 3.691 0.883 3.086 1.439 4.736 2.117 3.781 1.631 4.736 2.117 2.418 0.883 3.25 0.883c0.833 0 1.514 0.45 1.514 1s0.9 1 2 1 2 0.344 2 0.764 1.688 1.532 3.75 2.47c3.773 1.716 9.321 4.837 10.25 5.766 0.275 0.275 1.574 1.105 2.887 1.844s3.914 2.202 5.78 3.25c1.989 1.117 5.324 1.906 8.055 1.906 4.166 0 5.066-0.434 8.47-4.084 3.245-3.48 3.808-4.751 3.808-8.596 0-2.481-0.71-5.706-1.578-7.166-2.82-4.745-29.043-20.342-44.172-26.272-1.238-0.485-3.262-1.287-4.5-1.781-1.238-0.495-3.825-1.44-5.75-2.101s-4.4-1.573-5.5-2.026-3.35-1.104-5-1.446c-1.65-0.343-4.125-0.861-5.5-1.151s-3.4-0.916-4.5-1.39c-1.1-0.475-3.8-1.128-6-1.452s-6.475-1.08-9.5-1.68c-6.541-1.298-57.225-2.297-58.37-1.15m-2.63 1.891c-37.285 4.756-75.841 19.226-108.37 40.671-17.42 11.484-26.571 18.94-39.741 32.383-13.624 13.905-21.727 23.869-32.214 39.618-7.077 10.627-17.68 30.256-22.021 40.765-1.014 2.457-2.439 5.817-3.165 7.467-2.441 5.545-7.131 19.177-9.462 27.5-0.693 2.475-1.632 5.625-2.087 7-0.722 2.18-3.106 12.44-5.925 25.5-5.268 24.409-7.684 61.401-6.085 93.18 0.631 12.551 1.593 26.42 2.136 30.82 2.559 20.738 4.79 35.675 5.974 40 0.451 1.65 1.119 5.363 1.484 8.25 0.512 4.058 0.358 5.25-0.681 5.25-0.739 0-7.869-1.393-15.844-3.096-12.986-2.772-16.839-3.151-36.897-3.622-40.142-0.943-67.91 5.29-104.24 23.398-35.181 17.535-69.12 49.888-86.88 82.82-2.373 4.4-4.683 8.675-5.133 9.5-5.953 10.908-14.203 35.304-13.395 39.611 1.184 6.31 8.46 10.445 15.615 8.874 3.231-0.71 6.09-4.199 7.772-9.485 4.319-13.571 5.998-17.847 11.229-28.587 6.302-12.938 11.824-21.729 20.674-32.913 6.282-7.939 20.77-22.568 26.755-27.016 2.2-1.635 4.225-3.216 4.5-3.512 1.111-1.2 14.852-10.682 19.962-13.775 4.815-2.915 18.948-9.902 24.538-12.132 3.294-1.314 7.359-3.003 9.75-4.052 10.922-4.793 45.994-10.941 62.75-11 9.993-0.035 32.183 2.881 42.5 5.585 2.75 0.721 6.125 1.594 7.5 1.94 2.343 0.59 3.618 1.058 9.25 3.396 6.117 2.541 14.682 5.066 17.18 5.066 3.768 0 10.108-3.69 11.467-6.673 1.465-3.215 1.394-5.136-0.441-12.028-1.59-5.97-2.069-8.125-4.842-21.799-6.829-33.67-9.614-61.344-9.614-95.544 0-21.917 0.503-29.974 3.085-49.456 5.029-37.932 17.545-76.082 34.611-105.5 6.857-11.818 9.626-16.217 13.648-21.681 26.486-35.979 59.603-61.941 99.135-77.718 19.739-7.877 31.145-10.955 54.521-14.711 10.929-1.756 45.485-1.47 56 0.464 25.901 4.763 42.688 10.17 57.952 18.665 10.546 5.869 14.483 8.143 15.548 8.981 3.296 2.594 9.021 5 11.896 5 3.835 0 7.971-2.875 10.124-7.039 3.421-6.615 0.719-11.714-10.064-18.99-24.08-16.25-57.826-28.363-88.956-31.933-12.054-1.383-38.54-1.096-51.5 0.558m-4108.5 358.5c-7.7 0.444-17.825 1.328-22.5 1.965-13.591 1.851-33.198 5.003-37 5.949-1.925 0.479-5.75 1.402-8.5 2.052-41.202 9.732-90.524 30.753-128.89 54.937-34.767 21.913-70.508 53.441-98.059 86.5-15.252 18.301-23.058 29.593-40.072 57.967-5.408 9.019-11.161 17.197-14.475 20.577-8.521 8.691-34.227 25.001-44.314 28.116-12.269 3.79-15.395 3.992-42.186 2.732-25.868-1.216-47.398-0.533-66.5 2.113-3.575 0.495-10.55 1.394-15.5 1.998-9.608 1.172-17.525 2.491-24 3.999-21.238 4.944-34.5 8.466-34.5 9.16 0 1.121 2.611 1.064 4.764-0.104 1.525-0.827 10.44-3.099 23.986-6.113 2.337-0.52 6.163-1.371 8.5-1.893 5.621-1.253 15.194-2.73 26.25-4.051 4.95-0.592 12.825-1.621 17.5-2.288 5.805-0.828 21.185-1.132 48.5-0.957 25.931 0.166 41.759-0.125 45-0.827 10.855-2.35 21.069-7.269 36.991-17.813 14.834-9.823 21.323-16.96 32.462-35.707 20.954-35.266 35.638-54.555 61.67-81.012 21.811-22.167 36.349-34.649 58.377-50.122 47.711-33.512 111.1-60.564 163.5-69.773 23.342-4.103 48.054-6.476 67.5-6.483 22.552-9e-3 55.413 2.873 73.551 6.449 7.683 1.514 11.092 2.263 21.199 4.657 6.969 1.651 31.897 8.771 34.506 9.857 1.234 0.513 7.194 2.794 13.244 5.067 11.031 4.146 12.733 4.84 22 8.967 33.636 14.978 61.286 32.271 94.897 59.348 9.579 7.716 38.22 35.419 46.192 44.679 14.835 17.23 32.321 41.114 42.573 58.148 8.674 14.411 22.967 42.824 28.829 57.309 0.445 1.1 1.755 4.133 2.909 6.739 1.155 2.607 2.1 5.2 2.1 5.764 0 0.563 0.409 1.806 0.909 2.761 0.501 0.955 1.615 3.311 2.478 5.236 0.862 1.925 1.578 2.809 1.59 1.964 0.066-4.451-19.258-48.595-27.563-62.964-1.748-3.025-4.024-7.075-5.057-9-14.687-27.36-39.21-59.078-67.264-87-33.505-33.346-71.451-60.441-110.79-79.107-42.579-20.205-85.446-32.824-126.81-37.329-13.63-1.484-47.337-3.71-51.784-3.419-1.219 0.08-8.516 0.508-16.216 0.952m-7.5 26.065c-14.661 1.32-28.043 2.885-33 3.858-2.475 0.486-7.2 1.392-10.5 2.013-17.551 3.303-31.451 6.893-51 13.171-6.394 2.054-7.362 2.428-14.739 5.696-2.607 1.155-4.958 2.1-5.225 2.1s-3.433 1.35-7.036 3-6.822 3-7.155 3c-1.451 0-28.62 14.205-36.345 19.003-4.675 2.904-10.75 6.617-13.5 8.253-2.75 1.635-5.225 3.295-5.5 3.689s-4.1 3.12-8.5 6.057c-24.219 16.17-52.593 43.009-75.056 70.998-13.38 16.673-31.124 42.824-42.576 62.75-1.027 1.787-2.712 4.713-3.744 6.5-10.474 18.149-19.002 29.093-28.651 36.772-3.61 2.872-6.329 5.455-6.043 5.741 1.061 1.061 12.145-8.518 18.556-16.036 3.645-4.276 9.505-12.601 13.022-18.5 3.517-5.9 9.086-15.227 12.376-20.727 23.968-40.071 53.187-76.516 80.616-100.55 4.675-4.096 8.725-7.676 9-7.954s2.075-1.689 4-3.136 4.475-3.47 5.666-4.495c1.191-1.024 3.092-2.636 4.224-3.581 2.876-2.401 34.935-23.782 35.658-23.782 0.325 0 2.473-1.265 4.772-2.812s10.705-6 18.68-9.895c13.339-6.516 17.033-8.225 25.5-11.795 1.65-0.696 5.133-2.218 7.739-3.382 2.607-1.164 5.329-2.116 6.05-2.116s1.738-0.369 2.261-0.82c0.522-0.451 4.325-1.854 8.45-3.119s8.4-2.662 9.5-3.105 3.125-1.033 4.5-1.311 4.3-1.017 6.5-1.642c7.827-2.223 15.286-3.924 26.5-6.042 3.025-0.572 7.75-1.48 10.5-2.019 19.014-3.726 47.928-5.227 76.5-3.97 12.925 0.568 26.65 1.459 30.5 1.978 16.281 2.198 30.851 4.9 43.5 8.068 2.475 0.619 5.967 1.369 7.759 1.665 1.793 0.296 3.507 0.938 3.809 1.427 0.303 0.49 1.655 0.89 3.005 0.89s3.236 0.406 4.191 0.903c0.955 0.496 3.761 1.477 6.236 2.18 2.475 0.702 4.95 1.552 5.5 1.889 0.55 0.336 2.8 1.184 5 1.886 2.2 0.701 4.9 1.653 6 2.116s5.15 2.046 9 3.518c16.841 6.438 48.532 22.444 58.654 29.625 1.46 1.036 2.947 1.883 3.305 1.883 0.726 0 11.139 6.928 16.541 11.006 1.925 1.453 6.2 4.632 9.5 7.065s6.225 4.651 6.5 4.929 2.975 2.4 6 4.717 6.667 5.24 8.094 6.497c32.124 28.31 58.504 59.903 79.68 95.424 7.085 11.886 19.34 36.639 25.869 52.253 2.619 6.265 4.944 10.847 5.166 10.182 0.371-1.112-0.831-4.159-7.436-18.853-1.305-2.903-2.373-5.483-2.373-5.731 0-1.168-9.124-19.27-15.368-30.489-32.005-57.513-81.22-108.36-137.13-141.69-15.938-9.501-29.009-16.501-39-20.888-14.103-6.193-17.681-7.653-27.5-11.224-3.025-1.1-7.525-2.772-10-3.715-4.977-1.897-8.965-3.22-13.5-4.479-7.372-2.046-22.522-5.793-28-6.924-3.3-0.682-7.8-1.618-10-2.082-4.04-0.85-11.771-2.054-25.5-3.97-18.889-2.635-51.722-3.509-70-1.863" fill="#afc4c0" fill-rule="evenodd"/>
</svg>
